<?xml version="1.0" standalone="no"?>
<!DOCTYPE svg PUBLIC "-//W3C//DTD SVG 20010904//EN"
 "http://www.w3.org/TR/2001/REC-SVG-20010904/DTD/svg10.dtd">
<svg version="1.0" xmlns="http://www.w3.org/2000/svg"
 width="667.000000pt" height="402.000000pt" viewBox="0 0 667.000000 402.000000"
 preserveAspectRatio="xMidYMid meet">

<g transform="translate(0.000000,402.000000) scale(0.100000,-0.100000)"
fill="#000000" stroke="none">
<path d="M737 3995 c-15 -14 -34 -25 -40 -25 -15 0 -47 -51 -47 -74 0 -9 -4
-16 -8 -16 -4 0 -14 -16 -21 -35 -13 -37 -32 -45 -122 -49 -46 -2 -102 -35
-177 -104 -34 -31 -36 -38 -38 -97 -1 -35 -5 -69 -10 -76 -4 -6 -8 -21 -8 -33
-1 -11 -7 -20 -14 -19 -6 2 -9 -4 -6 -12 4 -10 0 -15 -14 -15 -11 0 -30 -12
-42 -27 -15 -19 -30 -27 -55 -28 -19 0 -37 5 -39 12 -3 8 -13 10 -23 6 -16 -6
-16 -5 -4 10 11 15 11 17 -1 17 -8 0 -25 9 -38 20 -13 11 -24 20 -26 20 -2 0
-3 -83 -3 -185 -1 -140 2 -185 12 -185 9 0 9 -2 0 -8 -16 -10 -17 -450 -1
-470 9 -10 9 -15 -1 -21 -9 -6 -12 -35 -10 -104 3 -94 3 -95 23 -81 12 7 30
13 41 12 11 0 29 3 39 7 14 6 17 5 12 -3 -5 -8 0 -12 13 -12 38 0 19 83 -21
100 -28 11 -25 12 30 15 26 2 40 -1 36 -7 -4 -6 3 -5 15 2 l22 11 -25 24 -26
24 35 -6 c34 -5 35 -4 33 23 -3 29 -32 63 -56 64 -9 0 -11 7 -7 20 4 12 1 27
-5 35 -18 22 3 18 33 -5 16 -13 40 -20 66 -20 23 0 41 -4 41 -9 0 -5 9 -13 21
-16 29 -10 50 21 36 52 -8 17 -7 27 1 35 17 17 15 28 -4 28 -9 0 -12 -5 -8
-12 4 -7 3 -10 -1 -5 -11 10 -14 47 -4 47 4 0 14 -6 21 -13 14 -15 38 -11 50
7 5 7 8 5 8 -6 0 -23 16 -31 37 -19 19 10 19 11 21 79 1 23 7 42 13 42 5 0 7
-4 4 -10 -3 -5 -2 -10 2 -10 5 0 14 9 21 21 7 11 19 18 26 16 7 -3 18 5 26 16
12 20 12 21 -3 8 -10 -7 -17 -12 -18 -10 0 2 -2 14 -3 26 -4 32 -13 38 -32 22
-16 -13 -16 -12 -4 8 10 15 18 19 26 13 6 -6 14 -7 18 -3 4 4 4 0 1 -9 -4 -9
-1 -19 6 -24 8 -5 10 -3 4 6 -6 10 -4 12 8 7 19 -7 25 18 7 26 -6 3 -5 4 2 3
7 -2 12 -14 11 -27 -1 -13 1 -31 3 -39 5 -13 7 -12 15 3 6 9 8 21 4 26 -3 5 0
13 6 17 6 3 15 0 20 -7 7 -11 9 -10 9 4 0 9 7 17 15 17 8 0 15 5 15 10 0 6 7
10 15 10 8 0 15 8 16 18 1 11 4 9 9 -8 l8 -25 7 23 c4 12 14 22 21 22 8 0 14
3 14 8 0 4 11 8 24 8 19 1 22 -1 13 -11 -6 -6 -18 -12 -26 -11 -7 1 -16 -5
-19 -13 -6 -19 50 -5 61 15 4 8 23 14 42 14 25 0 35 5 40 20 7 21 25 28 25 9
0 -5 5 -7 10 -4 6 3 10 17 10 30 0 18 4 22 20 18 15 -4 20 0 20 14 0 10 -6 25
-12 32 -11 11 -9 12 10 6 16 -5 22 -2 22 9 0 9 -7 16 -15 16 -8 0 -15 5 -15
10 0 6 9 10 20 10 15 0 22 9 27 30 3 17 9 30 14 30 5 0 6 -7 2 -16 -4 -12 -2
-15 8 -12 14 5 20 66 7 74 -4 2 -6 40 -4 84 1 44 -2 81 -6 82 -12 5 12 82 30
96 9 6 12 12 6 12 -5 0 -1 5 9 11 9 5 23 7 30 3 8 -5 7 -2 -2 9 -12 15 -11 17
5 17 14 0 15 3 6 8 -28 18 65 82 121 82 11 0 29 19 51 53 11 16 27 27 41 27
14 0 25 7 28 20 3 11 19 28 36 37 23 13 31 25 31 46 0 15 0 30 1 35 0 4 10 17
21 30 l21 22 -359 0 -359 -1 -28 -24z m-312 -377 c27 -7 45 -18 46 -28 1 -8 3
-25 4 -37 1 -12 -1 -22 -4 -21 -3 0 -8 -1 -11 -2 -49 -19 -107 31 -101 88 1
15 9 15 66 0z m85 -32 c0 -11 -19 -15 -25 -6 -3 5 1 10 9 10 9 0 16 -2 16 -4z
m-493 -228 c-3 -8 -6 -5 -6 6 -1 11 2 17 5 13 3 -3 4 -12 1 -19z m38 -129 c-4
-5 -13 -9 -21 -9 -12 0 -12 2 -2 14 14 15 32 11 23 -5z m65 1 c7 11 10 7 11
-17 1 -18 2 -38 3 -45 1 -16 -32 -19 -38 -2 -7 19 -36 18 -36 -2 0 -23 -17 -8
-22 21 -3 15 -1 25 6 25 6 0 17 10 25 22 13 21 14 21 28 2 12 -16 15 -17 23
-4z m517 -144 c-3 -7 -1 -18 3 -22 5 -5 5 -15 -1 -24 -9 -13 -10 -12 -5 2 3
10 1 20 -4 23 -9 5 -3 35 7 35 3 0 3 -6 0 -14z m-11 -74 c-6 -5 -36 23 -36 34
0 4 9 -1 20 -11 11 -10 18 -20 16 -23z m-206 24 c0 -2 -8 -10 -17 -17 -16 -13
-17 -12 -4 4 13 16 21 21 21 13z m77 -27 c-10 -6 -14 -15 -10 -22 4 -7 0 -6
-10 2 -18 14 -23 26 -8 16 5 -3 12 -1 16 5 3 5 12 10 18 10 7 0 4 -5 -6 -11z
m-274 -13 c3 3 13 1 23 -4 16 -9 16 -10 -4 -21 -27 -14 -52 -4 -52 21 0 16 3
18 13 9 8 -6 16 -8 20 -5z m-62 -39 c-8 -8 -11 -7 -11 4 0 20 13 34 18 19 3
-7 -1 -17 -7 -23z m118 -6 c-24 -19 -39 -19 -39 0 0 6 5 7 10 4 6 -3 10 -1 10
4 0 6 9 11 21 11 21 0 21 0 -2 -19z m191 -11 c-9 -6 -9 -9 -1 -13 8 -4 8 -5 0
-3 -7 1 -13 9 -15 18 -1 11 3 15 13 11 11 -4 12 -8 3 -13z m-215 -109 c-3 -5
5 -11 17 -13 28 -4 34 -24 8 -31 -24 -6 -25 -16 -5 -43 12 -16 16 -17 24 -4 5
8 7 18 5 22 -3 4 2 8 10 8 22 0 20 -9 -6 -37 -26 -27 -63 -30 -77 -5 -6 9 -11
13 -11 9 0 -5 -5 -5 -11 -2 -6 5 -4 12 8 21 16 12 14 12 -13 5 -49 -14 -62 2
-24 29 26 18 34 20 40 9 7 -10 11 -6 19 14 6 15 13 27 16 27 4 0 4 -4 0 -9z
m-155 -201 c0 -5 -2 -10 -4 -10 -3 0 -8 5 -11 10 -3 6 -1 10 4 10 6 0 11 -4
11 -10z m-38 -32 c-7 -7 -12 -8 -12 -2 0 14 12 26 19 19 2 -3 -1 -11 -7 -17z"/>
<path d="M215 2980 c-3 -5 -2 -10 4 -10 5 0 13 5 16 10 3 6 2 10 -4 10 -5 0
-13 -4 -16 -10z"/>
<path d="M2010 4010 c14 -4 18 -9 10 -9 -13 -1 -13 -3 0 -10 8 -6 18 -7 22 -5
4 3 8 -1 8 -8 0 -13 53 -41 135 -71 38 -14 41 -13 65 9 14 14 31 22 39 19 8
-3 18 0 23 7 6 10 8 9 8 -4 0 -23 -20 -34 -31 -17 -4 7 -11 10 -15 7 -3 -4 1
-14 10 -23 9 -9 14 -21 11 -26 -4 -5 1 -9 10 -9 11 0 15 5 12 14 -4 10 0 12
15 8 17 -4 20 -2 15 11 -4 11 -1 17 8 17 8 0 14 -6 12 -12 -1 -7 8 -14 21 -16
12 -2 22 -8 22 -13 0 -5 9 -9 20 -9 11 0 20 -5 20 -11 0 -5 5 -7 12 -3 18 11
68 15 68 6 0 -5 10 -8 23 -6 12 1 32 3 44 3 12 1 37 17 56 36 37 38 69 47 212
60 33 3 90 15 127 27 50 15 80 19 115 14 134 -19 137 -19 151 3 l12 21 -642
-1 c-354 -1 -632 -5 -618 -9z"/>
<path d="M3608 4013 c12 -2 32 -2 45 0 12 2 2 4 -23 4 -25 0 -35 -2 -22 -4z"/>
<path d="M3689 4011 c8 -5 20 -7 27 -4 6 2 15 0 18 -6 3 -5 21 -7 39 -5 17 3
61 9 97 13 59 8 52 8 -65 10 -80 0 -125 -3 -116 -8z"/>
<path d="M4008 4013 c18 -2 45 -2 60 0 15 2 0 4 -33 4 -33 0 -45 -2 -27 -4z"/>
<path d="M4110 4010 c0 -5 9 -10 19 -10 11 0 28 -11 38 -25 12 -17 36 -30 67
-38 35 -9 51 -19 54 -32 8 -38 2 -89 -14 -107 -11 -11 -15 -27 -11 -46 7 -36
0 -48 -43 -66 -19 -8 -28 -15 -19 -16 11 0 16 -9 15 -30 -1 -31 -10 -39 -20
-17 -3 8 -9 6 -20 -7 -10 -13 -12 -23 -6 -31 13 -15 10 -85 -4 -86 -6 0 5 -5
24 -11 l35 -10 -25 -11 c-14 -5 -27 -10 -30 -9 -3 0 -6 -8 -6 -18 0 -12 6 -16
16 -12 12 4 12 2 3 -8 -6 -7 -9 -19 -6 -26 10 -28 20 -13 18 28 -2 39 -1 40
12 22 8 -10 18 -25 22 -33 5 -8 13 -11 20 -7 16 10 14 36 -3 30 -7 -3 -16 1
-19 10 -3 8 1 17 10 20 8 4 13 13 10 20 -4 9 7 20 29 31 29 14 41 15 64 5 16
-7 31 -18 34 -26 3 -9 1 -12 -4 -9 -12 8 -13 -25 -1 -43 6 -11 10 -10 15 5 7
17 8 17 17 0 6 -9 16 -14 22 -11 7 4 8 3 4 -2 -5 -5 -16 -9 -24 -9 -9 0 -18
-7 -20 -15 -4 -13 -3 -13 6 0 9 12 11 12 17 -3 3 -9 11 -14 17 -10 6 4 7 1 3
-6 -5 -7 -15 -10 -23 -7 -10 4 -13 2 -10 -8 3 -8 9 -31 13 -50 3 -20 11 -36
18 -36 6 0 4 -5 -4 -10 -12 -8 -13 -11 -1 -19 10 -7 10 -10 1 -16 -9 -6 -6
-12 11 -22 13 -8 17 -12 8 -10 -8 3 -21 -3 -27 -14 -8 -12 -18 -16 -29 -12
-11 4 -14 3 -9 -5 5 -8 1 -10 -10 -5 -11 4 -13 8 -6 11 7 2 9 8 6 14 -4 7 -14
1 -25 -13 -10 -13 -19 -19 -19 -13 0 6 7 17 15 24 17 14 19 39 4 60 -8 11 -9
9 -3 -10 7 -24 7 -24 -20 -7 -15 10 -32 14 -39 10 -7 -4 -15 -8 -19 -8 -5 0
-8 -4 -7 -10 1 -16 5 -16 19 0 7 8 17 15 23 15 5 0 2 -9 -8 -20 -17 -19 -17
-20 1 -20 18 -1 18 -1 -1 -12 -19 -12 -19 -12 5 -18 24 -7 24 -7 -10 -18 -25
-7 -29 -11 -15 -13 54 -6 74 -5 72 5 -1 6 5 9 13 7 8 -1 24 -4 35 -6 11 -1 39
-9 63 -18 39 -13 41 -13 30 1 -12 14 -11 14 9 2 16 -11 19 -17 11 -27 -7 -9
-7 -13 1 -13 6 0 16 10 21 23 5 12 9 16 9 10 1 -7 7 -13 15 -13 10 0 13 -7 11
-20 -2 -11 0 -18 4 -15 5 3 11 -2 15 -10 7 -18 52 -20 60 -2 3 6 3 -6 1 -28
-5 -37 -4 -38 6 -12 12 31 24 34 38 10 10 -17 10 -17 11 0 0 9 5 17 10 17 6 0
10 -9 10 -21 0 -19 1 -19 16 -5 18 19 38 20 65 5 17 -8 23 -7 35 8 13 17 15
17 28 1 7 -10 16 -18 20 -18 11 0 6 28 -6 33 -7 2 18 2 57 0 38 -3 78 -9 87
-14 23 -13 28 -11 28 8 0 15 1 15 13 -1 14 -19 54 -18 50 2 -2 7 7 10 25 7 15
-3 62 -9 105 -15 43 -5 87 -15 98 -21 26 -14 36 -4 18 17 -12 15 -11 16 11 11
14 -4 19 -4 13 -1 -7 3 -13 10 -13 16 0 6 33 9 90 6 67 -2 90 0 90 10 0 6 5
12 11 12 6 0 9 -6 6 -14 -3 -8 -1 -17 6 -19 7 -2 -1 -11 -18 -21 l-30 -17 39
5 c44 6 56 14 37 25 -10 6 -9 10 5 15 10 4 24 0 34 -9 9 -8 22 -15 29 -15 6 0
16 -10 22 -22 9 -21 9 -21 4 5 -3 15 -1 27 5 27 5 0 10 -4 10 -9 0 -5 9 -11
20 -14 11 -3 20 -13 20 -22 0 -12 5 -15 16 -11 9 3 31 6 50 6 24 0 34 5 34 15
0 8 9 15 20 15 25 0 26 -16 3 -29 -14 -8 -11 -10 17 -16 19 -3 55 -10 80 -14
l45 -9 -42 -1 c-31 -1 -43 -5 -43 -16 0 -12 16 -15 80 -15 47 0 80 4 80 10 0
6 18 10 40 10 22 0 40 -4 40 -10 0 -5 -18 -10 -40 -10 -27 0 -40 -4 -40 -14 0
-9 23 -15 81 -19 45 -4 88 -12 95 -18 8 -6 20 -9 29 -6 8 4 19 -1 24 -11 9
-15 10 -14 11 6 0 16 6 22 23 22 28 0 53 25 60 60 4 23 4 23 6 3 0 -13 6 -23
12 -23 6 0 9 10 8 23 -3 29 10 57 26 57 8 0 15 20 19 53 4 29 11 59 16 67 5 8
5 21 -1 33 -7 13 -7 23 2 33 7 8 8 14 3 13 -21 -4 -28 2 -14 11 10 6 11 10 3
10 -15 0 -18 36 -4 45 6 3 8 15 6 26 -3 12 0 30 6 41 7 13 7 23 0 32 -12 15
-5 46 11 46 6 0 7 8 4 17 -4 10 -4 14 0 11 3 -4 15 3 25 15 15 18 20 19 28 8
9 -15 26 2 17 18 -3 4 4 17 16 27 12 11 18 13 13 5 -5 -9 -3 -12 5 -9 29 9 20
29 -26 58 -26 16 -60 30 -75 30 -45 0 -115 36 -168 86 -28 26 -48 51 -45 56 7
11 -22 39 -30 30 -4 -3 -4 1 0 11 8 22 -3 67 -17 67 -6 0 -6 -6 1 -19 5 -11
10 -23 10 -28 -1 -4 -9 8 -20 27 -21 40 -53 76 -72 82 -17 6 14 54 41 63 12 4
18 12 14 21 -4 11 -28 14 -117 14 -104 -1 -109 -2 -83 -16 15 -8 27 -19 27
-25 0 -6 7 -9 15 -5 9 3 19 -3 25 -14 8 -16 8 -20 -4 -20 -8 0 -17 -13 -21
-29 -6 -26 -9 -28 -33 -21 -15 4 -40 15 -56 23 -41 22 -53 10 -22 -22 26 -27
33 -51 19 -65 -8 -7 -9 -11 -12 -37 0 -6 -8 -8 -18 -4 -10 3 -64 8 -120 11
l-101 4 -7 -29 c-5 -22 -13 -30 -36 -33 -16 -3 -37 1 -47 8 -23 18 -52 17 -52
-1 0 -35 -163 3 -220 52 -36 31 -44 34 -84 28 -36 -6 -54 -2 -107 23 -35 16
-79 43 -96 58 -18 16 -44 37 -59 47 -14 11 -29 30 -34 43 l-10 24 -430 0
c-280 0 -430 -3 -430 -10z m2045 -60 c3 -5 -1 -10 -9 -10 -9 0 -16 5 -16 10 0
6 4 10 9 10 6 0 13 -4 16 -10z m-1900 -388 c-3 -3 -11 0 -18 7 -9 10 -8 11 6
5 10 -3 15 -9 12 -12z m85 -2 c0 -5 -4 -10 -10 -10 -5 0 -10 5 -10 10 0 6 5
10 10 10 6 0 10 -4 10 -10z m104 -256 c10 -37 2 -39 -11 -4 -6 17 -8 30 -3 30
4 0 11 -12 14 -26z m-134 -74 c0 -5 -5 -10 -11 -10 -5 0 -7 5 -4 10 3 6 8 10
11 10 2 0 4 -4 4 -10z m776 -80 c20 -8 29 -8 35 2 4 7 11 9 15 6 13 -13 -25
-40 -42 -30 -20 11 -54 4 -54 -11 0 -8 -3 -8 -11 0 -8 8 -8 15 2 27 17 18 20
19 55 6z m-294 -54 c-3 -5 4 -16 14 -23 17 -14 15 -14 -24 -10 -48 5 -69 17
-29 17 22 0 25 3 21 26 -4 22 -3 23 10 12 7 -7 11 -17 8 -22z m808 26 c0 -12
-68 -13 -75 -2 -4 6 11 10 34 10 23 0 41 -4 41 -8z m-995 -12 c3 -5 1 -10 -4
-10 -6 0 -11 5 -11 10 0 6 2 10 4 10 3 0 8 -4 11 -10z m505 -10 c0 -5 -11 -10
-25 -10 -14 0 -25 5 -25 10 0 6 11 10 25 10 14 0 25 -4 25 -10z m30 0 c0 -5
-4 -10 -10 -10 -5 0 -10 5 -10 10 0 6 5 10 10 10 6 0 10 -4 10 -10z m460 -10
c0 -5 -4 -10 -10 -10 -5 0 -10 5 -10 10 0 6 5 10 10 10 6 0 10 -4 10 -10z"/>
<path d="M6303 4006 c15 -7 25 -15 22 -17 -3 -3 1 -6 9 -6 30 0 4 33 -27 34
l-32 2 28 -13z"/>
<path d="M4073 3714 c0 -23 1 -24 9 -10 7 12 7 21 0 28 -6 6 -9 0 -9 -18z"/>
<path d="M3861 3707 c-15 -15 -14 -27 2 -27 7 0 13 -9 14 -19 1 -14 -3 -18
-13 -14 -8 3 -14 9 -14 15 0 5 -4 7 -10 3 -5 -3 -7 -12 -3 -20 3 -8 1 -15 -5
-15 -6 0 -7 -13 -2 -37 5 -20 7 -41 4 -45 -3 -4 -1 -8 5 -8 5 0 16 -3 25 -6
12 -5 16 1 17 22 0 23 2 25 8 10 6 -17 9 -16 25 9 17 26 17 29 2 37 -15 9 -15
11 0 37 9 16 14 35 11 44 -7 18 -52 28 -66 14z"/>
<path d="M3720 3701 c0 -5 7 -14 15 -21 10 -9 15 -9 15 -1 0 6 -5 11 -11 11
-5 0 -7 5 -4 10 3 6 1 10 -4 10 -6 0 -11 -4 -11 -9z"/>
<path d="M4097 3694 c-8 -8 20 -37 32 -32 4 2 1 11 -9 20 -9 10 -19 15 -23 12z"/>
<path d="M3690 3684 c0 -4 10 -15 22 -25 11 -11 18 -22 14 -26 -4 -4 -10 -3
-14 3 -4 6 -14 13 -23 16 -13 5 -15 1 -12 -20 4 -21 2 -24 -6 -12 -10 13 -12
13 -21 0 -7 -11 -5 -16 6 -18 9 -2 13 -10 10 -19 -5 -13 -4 -14 9 -3 10 8 15
9 15 1 0 -12 32 -15 43 -4 4 3 2 12 -3 19 -8 8 -6 17 5 28 15 14 14 18 -9 41
-25 25 -36 31 -36 19z"/>
<path d="M3960 3662 c-13 -14 -12 -15 3 -9 10 4 17 2 17 -5 0 -6 3 -9 6 -5 3
3 2 12 -3 20 -7 13 -10 13 -23 -1z"/>
<path d="M3811 3574 c0 -11 3 -14 6 -6 3 7 2 16 -1 19 -3 4 -6 -2 -5 -13z"/>
<path d="M6657 3560 c-3 -11 -1 -20 4 -20 5 0 9 9 9 20 0 11 -2 20 -4 20 -2 0
-6 -9 -9 -20z"/>
<path d="M1865 3551 c-11 -5 -23 -7 -27 -5 -9 6 -28 -54 -22 -71 4 -8 1 -15
-5 -15 -6 0 -8 -7 -5 -15 4 -9 0 -15 -7 -15 -11 0 -11 -3 1 -10 13 -9 13 -11
0 -20 -8 -5 -11 -10 -7 -10 4 0 3 -9 -3 -21 -14 -25 -68 -59 -96 -59 -14 0
-24 -8 -29 -22 -6 -20 -8 -20 -12 -5 -2 9 -9 17 -14 17 -12 0 -12 -27 1 -35 6
-3 10 -15 10 -26 0 -10 -4 -19 -10 -19 -5 0 -10 9 -10 19 0 11 -4 23 -10 26
-5 3 -10 18 -11 33 0 15 -3 21 -6 15 -2 -7 -12 -13 -21 -13 -13 0 -14 -2 -4
-9 11 -7 11 -9 -2 -14 -9 -4 -16 -2 -16 3 0 6 -10 10 -21 10 -18 0 -20 -2 -8
-16 11 -13 11 -15 -2 -14 -29 5 -39 -1 -39 -20 0 -23 15 -26 27 -5 6 9 13 11
23 5 11 -7 9 -11 -13 -19 -15 -6 -27 -15 -27 -21 0 -14 64 -39 100 -38 41 1
38 14 -7 27 l-38 11 42 -5 c23 -3 45 -1 48 5 3 5 14 10 23 10 13 0 14 -2 3 -9
-10 -6 -10 -10 -1 -16 6 -4 9 -12 7 -19 -3 -7 9 -11 32 -11 20 -1 44 -5 54 -9
12 -6 17 -4 17 8 0 22 17 20 30 -4 6 -11 16 -20 22 -20 6 0 17 -8 24 -17 8
-11 13 -13 14 -5 0 6 7 12 16 12 9 0 14 -6 11 -13 -7 -18 82 -15 93 3 6 10 9
9 13 -1 5 -11 9 -10 20 3 11 14 16 15 27 5 10 -9 14 -9 17 1 4 10 10 10 28 -2
14 -9 26 -12 30 -6 9 14 32 1 38 -21 3 -10 13 -19 22 -19 14 0 15 3 5 15 -11
13 -8 15 18 15 23 0 30 -4 26 -14 -4 -10 3 -13 28 -11 27 2 34 7 38 30 7 39
31 46 26 8 -2 -15 -1 -22 1 -14 8 23 32 43 43 36 5 -3 10 1 10 10 0 8 -10 20
-22 25 -22 8 -21 11 4 14 25 2 18 25 -9 29 l-28 4 28 2 c31 1 34 9 10 27 -17
11 -15 14 12 25 l30 13 -39 4 c-25 2 -42 -1 -47 -10 -6 -9 -9 -7 -9 8 0 27 10
36 26 24 9 -8 12 -2 11 25 -1 31 -3 34 -13 21 -16 -22 -21 -20 -27 13 -7 33
-34 43 -134 50 -27 1 -31 21 -5 22 18 1 12 4 -46 24 -14 4 -21 13 -18 21 3 8
-1 14 -9 14 -8 0 -15 5 -15 10 0 6 -7 10 -15 10 -8 0 -15 4 -15 9 0 16 -156
34 -185 22z m112 -17 c-3 -3 -12 -4 -19 -1 -8 3 -5 6 6 6 11 1 17 -2 13 -5z
m285 -179 c3 -14 1 -25 -3 -25 -5 0 -9 11 -9 25 0 14 2 25 4 25 2 0 6 -11 8
-25z m-27 5 c3 -5 -1 -10 -10 -10 -9 0 -13 5 -10 10 3 6 8 10 10 10 2 0 7 -4
10 -10z m-648 -106 c-3 -3 -12 -4 -19 -1 -8 3 -5 6 6 6 11 1 17 -2 13 -5z m18
-34 c3 -6 -1 -7 -9 -4 -18 7 -21 14 -7 14 6 0 13 -4 16 -10z m-65 -20 c0 -5
-4 -10 -10 -10 -5 0 -10 5 -10 10 0 6 5 10 10 10 6 0 10 -4 10 -10z m330 -30
c0 -5 -4 -10 -10 -10 -5 0 -10 5 -10 10 0 6 5 10 10 10 6 0 10 -4 10 -10z
m366 -47 c-10 -10 -19 5 -10 18 6 11 8 11 12 0 2 -7 1 -15 -2 -18z m-295 -1
c-7 -2 -18 1 -23 6 -8 8 -4 9 13 5 13 -4 18 -8 10 -11z m259 8 c0 -5 -7 -10
-15 -10 -8 0 -15 5 -15 10 0 6 7 10 15 10 8 0 15 -4 15 -10z m75 0 c3 -5 1
-10 -4 -10 -6 0 -11 5 -11 10 0 6 2 10 4 10 3 0 8 -4 11 -10z"/>
<path d="M3040 3535 c0 -8 0 -17 0 -20 0 -3 3 -5 6 -4 4 0 11 -5 15 -13 14
-21 30 11 18 34 -12 22 -39 24 -39 3z m30 -5 c0 -5 -4 -10 -10 -10 -5 0 -10 5
-10 10 0 6 5 10 10 10 6 0 10 -4 10 -10z"/>
<path d="M3705 3540 c-3 -5 -1 -10 4 -10 6 0 11 5 11 10 0 6 -2 10 -4 10 -3 0
-8 -4 -11 -10z"/>
<path d="M6585 3510 c-3 -5 -1 -10 4 -10 6 0 11 5 11 10 0 6 -2 10 -4 10 -3 0
-8 -4 -11 -10z"/>
<path d="M4320 3466 c0 -2 8 -10 18 -17 15 -13 16 -12 3 4 -13 16 -21 21 -21
13z"/>
<path d="M3850 3394 c0 -8 5 -12 10 -9 6 3 10 10 10 16 0 5 -4 9 -10 9 -5 0
-10 -7 -10 -16z"/>
<path d="M2371 3330 c6 -16 16 -30 22 -30 7 0 7 4 -1 12 -7 7 -12 20 -12 30 0
10 -4 18 -9 18 -6 0 -6 -12 0 -30z"/>
<path d="M4258 3343 c7 -3 16 -2 19 1 4 3 -2 6 -13 5 -11 0 -14 -3 -6 -6z"/>
<path d="M4371 3325 c0 -5 3 -16 8 -23 7 -11 9 -10 14 3 4 9 3 14 -2 10 -5 -3
-12 1 -14 7 -3 7 -6 9 -6 3z"/>
<path d="M1456 3228 c5 -8 2 -9 -10 -5 -10 4 -15 3 -11 -3 10 -15 35 -12 35 5
0 8 -5 15 -11 15 -5 0 -7 -5 -3 -12z"/>
<path d="M3092 3220 c0 -14 2 -19 5 -12 2 6 2 18 0 25 -3 6 -5 1 -5 -13z"/>
<path d="M1370 3211 c0 -6 5 -13 10 -16 6 -3 10 1 10 9 0 9 -4 16 -10 16 -5 0
-10 -4 -10 -9z"/>
<path d="M1415 3200 c-3 -5 1 -10 10 -10 9 0 13 5 10 10 -3 6 -8 10 -10 10 -2
0 -7 -4 -10 -10z"/>
<path d="M3076 3181 c-4 -7 -5 -15 -2 -18 9 -9 19 4 14 18 -4 11 -6 11 -12 0z"/>
<path d="M1010 3159 c0 -5 5 -7 10 -4 6 3 10 8 10 11 0 2 -4 4 -10 4 -5 0 -10
-5 -10 -11z"/>
<path d="M1375 3160 c3 -5 8 -10 11 -10 2 0 4 5 4 10 0 6 -5 10 -11 10 -5 0
-7 -4 -4 -10z"/>
<path d="M1605 3140 c3 -5 15 -10 26 -10 11 0 17 5 14 10 -3 6 -15 10 -26 10
-11 0 -17 -4 -14 -10z"/>
<path d="M5443 3053 c15 -2 39 -2 55 0 15 2 2 4 -28 4 -30 0 -43 -2 -27 -4z"/>
<path d="M4590 3036 c0 -8 -3 -23 -6 -33 -5 -16 -4 -16 10 1 18 22 21 46 6 46
-5 0 -10 -6 -10 -14z"/>
<path d="M5120 3040 c0 -5 18 -10 40 -10 22 0 40 5 40 10 0 6 -18 10 -40 10
-22 0 -40 -4 -40 -10z"/>
<path d="M5063 3018 c2 -7 10 -13 17 -13 7 0 15 6 18 13 2 7 -5 12 -18 12 -13
0 -20 -5 -17 -12z"/>
<path d="M2595 3010 c-4 -6 -17 -15 -29 -20 -14 -6 -16 -9 -5 -9 19 -1 56 25
47 34 -3 3 -9 1 -13 -5z"/>
<path d="M4735 3010 c3 -5 15 -10 25 -10 10 0 22 5 25 10 4 6 -7 10 -25 10
-18 0 -29 -4 -25 -10z"/>
<path d="M4661 2994 c0 -11 3 -14 6 -6 3 7 2 16 -1 19 -3 4 -6 -2 -5 -13z"/>
<path d="M5655 2990 c-19 -8 -19 -9 3 -9 12 -1 22 4 22 9 0 6 -1 10 -2 9 -2 0
-12 -4 -23 -9z"/>
<path d="M5568 2983 c6 -2 18 -2 25 0 6 3 1 5 -13 5 -14 0 -19 -2 -12 -5z"/>
<path d="M6406 2894 c9 -39 24 -54 24 -25 0 12 -7 29 -15 38 -14 14 -15 13 -9
-13z"/>
<path d="M6378 2883 c7 -3 16 -2 19 1 4 3 -2 6 -13 5 -11 0 -14 -3 -6 -6z"/>
<path d="M4120 2856 c0 -8 4 -17 9 -21 6 -3 9 4 8 15 -1 23 -17 28 -17 6z"/>
<path d="M4167 2823 c-7 -16 -1 -30 28 -65 24 -29 34 -35 45 -27 12 9 11 10
-4 5 -14 -5 -17 -3 -11 11 3 10 7 20 7 23 2 20 -5 29 -21 27 -11 0 -17 -5 -15
-9 3 -5 11 -5 17 -2 8 5 8 2 -1 -7 -10 -11 -15 -10 -29 4 -15 15 -15 17 0 23
9 3 14 10 11 15 -6 11 -21 12 -27 2z m56 -58 c-3 -9 -8 -14 -10 -11 -3 3 -2 9
2 15 9 16 15 13 8 -4z"/>
<path d="M5520 2649 c0 -5 -4 -8 -9 -5 -5 4 -7 -3 -4 -14 5 -17 8 -18 21 -8
13 11 14 9 7 -12 l-7 -25 23 23 c24 23 24 23 5 38 -23 17 -36 18 -36 3z"/>
<path d="M5583 2630 c1 -21 21 -27 32 -11 3 6 -3 15 -14 21 -17 8 -20 7 -18
-10z"/>
<path d="M3830 2629 c0 -5 5 -7 10 -4 6 3 10 8 10 11 0 2 -4 4 -10 4 -5 0 -10
-5 -10 -11z"/>
<path d="M5220 2599 c0 -28 12 -58 25 -63 9 -3 11 2 8 17 -4 20 -3 20 7 4 6
-10 9 -24 7 -31 -3 -8 1 -13 11 -12 12 1 17 -8 18 -29 1 -32 18 -70 41 -93 18
-18 16 -2 -2 22 -8 11 -15 27 -14 35 0 11 2 12 6 4 11 -28 24 -12 17 20 -4 17
-7 38 -7 45 0 6 -4 12 -9 12 -4 0 -8 7 -8 15 0 18 -12 19 -27 4 -8 -8 -14 -1
-23 25 -6 20 -16 34 -21 30 -5 -3 -7 -11 -3 -17 3 -7 -2 -3 -10 7 -12 14 -16
16 -16 5z"/>
<path d="M5590 2589 c0 -5 5 -7 10 -4 6 3 10 8 10 11 0 2 -4 4 -10 4 -5 0 -10
-5 -10 -11z"/>
<path d="M5584 2565 c-12 -8 -25 -11 -29 -7 -5 4 -5 2 -1 -5 3 -6 2 -14 -4
-18 -5 -3 -10 -15 -10 -26 0 -11 -5 -17 -10 -14 -6 4 -8 15 -5 26 5 13 2 19
-10 19 -11 0 -15 -7 -13 -22 2 -15 -4 -26 -19 -33 -14 -7 -19 -16 -13 -24 6
-11 8 -11 12 0 3 8 9 10 14 6 5 -5 1 -14 -9 -22 -10 -7 -15 -19 -11 -29 6 -14
2 -14 -28 3 l-34 20 3 -42 c7 -104 6 -101 25 -77 10 13 19 17 23 10 5 -7 12
-5 22 7 8 10 11 12 7 4 -5 -9 -3 -12 4 -7 7 4 12 16 12 27 0 11 7 33 15 50 15
28 12 55 -4 45 -4 -3 -8 4 -8 15 -1 10 3 19 8 19 6 0 8 -4 5 -8 -3 -5 1 -9 9
-9 8 0 12 4 9 9 -3 4 0 8 6 8 6 0 8 5 4 12 -5 7 0 9 14 6 16 -5 20 -2 17 13
-2 11 4 25 16 32 19 12 26 27 11 27 -4 0 -17 -7 -28 -15z"/>
<path d="M5441 2551 c-7 -5 -12 -13 -10 -18 2 -5 12 -1 22 9 18 19 12 24 -12
9z"/>
<path d="M5478 2544 c-16 -8 -28 -17 -28 -20 0 -3 5 -2 11 2 8 4 9 -1 4 -16
-6 -18 -3 -21 12 -18 11 2 17 11 15 22 -2 9 2 24 9 32 14 17 11 17 -23 -2z"/>
<path d="M5615 2530 c-3 -5 -1 -10 4 -10 6 0 11 5 11 10 0 6 -2 10 -4 10 -3 0
-8 -4 -11 -10z"/>
<path d="M5431 2496 c-10 -11 -9 -19 1 -35 19 -30 30 -26 24 10 -6 39 -10 43
-25 25z"/>
<path d="M5260 2485 c-8 -10 -9 -15 -1 -15 6 0 11 -6 11 -14 0 -8 4 -17 9 -20
9 -6 8 50 -1 59 -3 3 -11 -1 -18 -10z"/>
<path d="M4835 2459 c-14 -12 -22 -25 -19 -31 4 -6 2 -8 -3 -5 -12 8 -73 -20
-73 -33 0 -13 -29 -20 -36 -8 -4 7 -3 8 4 4 7 -4 12 -3 12 3 0 19 -19 21 -30
4 -9 -15 -10 -14 -4 7 5 20 4 23 -7 13 -7 -7 -13 -21 -14 -33 -1 -11 -10 -26
-20 -34 -18 -13 -18 -14 2 -24 16 -9 24 -8 33 3 15 18 31 10 23 -11 -5 -14 -3
-15 18 -3 13 7 28 12 32 11 5 -1 5 3 1 9 -5 9 -2 10 9 6 12 -5 19 1 23 18 3
14 10 22 15 19 5 -3 9 1 9 8 0 7 16 23 35 35 44 29 61 58 35 60 -11 1 -31 -7
-45 -18z m-72 -110 c-21 -7 -28 4 -18 29 6 16 8 15 21 -3 13 -17 13 -20 -3
-26z"/>
<path d="M4961 2445 c-13 -14 -21 -32 -17 -40 6 -18 -13 -67 -24 -60 -5 3 -7
18 -6 35 l2 30 -22 -21 c-12 -12 -27 -18 -33 -14 -6 3 -11 -1 -11 -9 0 -8 -9
-20 -20 -26 -11 -6 -18 -15 -16 -19 6 -10 -31 -51 -45 -51 -6 0 -8 -7 -5 -16
3 -8 2 -12 -4 -9 -5 3 -16 -10 -24 -30 -8 -19 -22 -35 -31 -35 -9 0 -13 5 -10
10 3 6 -1 10 -10 10 -11 0 -15 7 -13 23 4 34 -5 35 -37 3 -17 -16 -23 -26 -15
-23 23 7 50 -17 45 -41 -2 -15 0 -19 11 -15 13 5 19 -8 15 -30 -1 -5 3 -6 8
-3 5 4 11 0 14 -6 3 -9 13 -3 30 16 14 17 24 33 21 37 -2 4 4 10 15 14 11 3
21 14 23 23 2 9 12 17 23 17 13 0 20 6 19 17 -1 10 2 16 6 13 5 -3 10 5 12 17
2 13 8 22 14 21 5 -1 11 7 11 18 1 15 -3 19 -18 14 -21 -7 -22 -1 -9 30 8 19
9 19 9 1 1 -19 1 -19 15 -1 13 18 14 18 25 -4 7 -12 9 -32 5 -44 -9 -32 8 -11
37 43 13 25 27 48 32 51 10 7 19 79 9 79 -4 0 -18 -12 -31 -25z m-186 -236
c-5 -27 -11 -33 -20 -20 -3 6 -2 11 4 11 6 0 8 7 5 15 -4 8 -1 15 4 15 6 0 9
-10 7 -21z"/>
<path d="M5360 2446 c0 -2 6 -16 14 -30 10 -21 15 -23 19 -11 8 21 -2 45 -19
45 -8 0 -14 -2 -14 -4z"/>
<path d="M5585 2440 c-3 -5 -12 -7 -20 -4 -16 7 -39 -40 -31 -62 6 -15 -40
-74 -57 -74 -21 0 -29 -139 -9 -162 9 -11 12 -27 7 -46 -8 -41 12 -52 37 -21
11 13 17 18 13 11 -5 -9 0 -11 19 -8 38 7 49 16 37 30 -6 6 -10 57 -9 113 0
56 -3 106 -7 112 -4 7 -1 18 5 26 7 8 9 15 5 15 -5 0 0 9 10 20 10 11 14 20 9
20 -5 0 -2 5 6 10 11 7 11 10 2 10 -7 0 -10 5 -7 10 3 6 4 10 1 10 -3 0 -7 -4
-11 -10z m-8 -47 c-9 -9 -20 -13 -24 -9 -4 4 -1 11 7 16 25 16 35 11 17 -7z
m-27 -63 c0 -5 -5 -10 -11 -10 -5 0 -7 5 -4 10 3 6 8 10 11 10 2 0 4 -4 4 -10z"/>
<path d="M4695 2430 c3 -5 8 -10 11 -10 2 0 4 5 4 10 0 6 -5 10 -11 10 -5 0
-7 -4 -4 -10z"/>
<path d="M325 2410 c-3 -5 -12 -7 -21 -3 -11 4 -14 0 -10 -21 2 -14 7 -30 10
-35 10 -15 -58 -7 -72 9 -8 8 -11 11 -9 5 2 -5 2 -18 -2 -28 -6 -15 -11 -13
-43 17 -42 40 -71 42 -78 6 -7 -33 -47 -38 -78 -10 -26 24 -30 6 -5 -22 16
-18 16 -18 0 -12 -20 7 -22 -7 -5 -24 10 -10 10 -15 -2 -22 -8 -5 -11 -12 -7
-17 4 -4 17 -1 29 6 14 9 23 10 31 2 8 -8 5 -11 -11 -11 -12 0 -22 -5 -22 -11
0 -6 -6 -9 -12 -6 -10 3 -14 -18 -16 -84 l-3 -89 25 10 c21 7 26 6 26 -5 0 -8
7 -15 15 -15 9 0 12 -6 9 -15 -5 -12 -2 -13 17 -7 15 6 32 4 51 -6 23 -11 32
-11 44 -2 12 10 18 8 34 -10 23 -26 25 -36 9 -46 -6 -3 -8 -17 -4 -31 3 -14 0
-32 -7 -41 -10 -12 -10 -14 0 -8 6 4 21 26 32 48 15 32 17 45 9 61 -10 17 -9
19 5 14 9 -4 16 -2 16 4 0 15 -28 23 -94 28 -18 1 -17 3 4 21 13 11 26 20 31
20 4 0 5 8 2 19 -4 15 0 18 22 13 19 -3 24 -9 20 -21 -4 -9 -9 -22 -12 -28 -6
-14 9 -15 47 -3 24 8 24 8 3 9 -16 1 -23 7 -23 22 0 16 4 19 21 14 29 -9 21
16 -10 31 -16 8 -18 13 -9 16 7 3 -3 8 -22 13 -50 11 -68 26 -60 49 6 18 7 18
13 2 4 -11 12 -14 19 -9 18 11 29 11 65 -4 42 -17 40 -18 39 17 -1 16 -4 30
-9 30 -4 0 -1 14 8 30 17 34 27 37 49 15 13 -13 16 -13 32 2 11 11 13 18 5 21
-7 2 -9 16 -5 38 5 29 4 33 -10 28 -10 -4 -18 0 -22 10 -3 9 -10 13 -15 10 -5
-3 -9 0 -9 5 0 14 -27 14 -35 1z m-185 -121 c0 -6 -4 -7 -10 -4 -5 3 -10 11
-10 16 0 6 5 7 10 4 6 -3 10 -11 10 -16z m74 -21 c-6 -9 -34 1 -34 14 0 5 5 6
10 3 6 -3 10 0 10 7 0 10 3 9 9 -2 6 -8 8 -17 5 -22z m-94 3 c0 -6 -4 -13 -10
-16 -5 -3 -10 1 -10 9 0 9 5 16 10 16 6 0 10 -4 10 -9z m134 -30 c3 -5 -3 -11
-15 -14 -16 -4 -18 -3 -8 9 13 16 16 17 23 5z m-124 -11 c0 -5 -4 -10 -9 -10
-6 0 -13 5 -16 10 -3 6 1 10 9 10 9 0 16 -4 16 -10z m30 -70 c0 -5 -2 -10 -4
-10 -3 0 -8 5 -11 10 -3 6 -1 10 4 10 6 0 11 -4 11 -10z m50 -30 c0 -5 -4 -10
-10 -10 -5 0 -10 5 -10 10 0 6 5 10 10 10 6 0 10 -4 10 -10z m-105 -10 c3 -5
1 -10 -4 -10 -6 0 -11 5 -11 10 0 6 2 10 4 10 3 0 8 -4 11 -10z m-51 -14 c-8
-21 -31 -27 -38 -11 -3 9 0 12 10 8 7 -3 14 0 14 6 0 6 4 11 10 11 5 0 7 -6 4
-14z m79 -23 c-3 -7 2 -13 11 -13 9 0 16 -4 16 -10 0 -13 -11 -12 -32 4 -22
16 -23 33 -4 33 8 0 12 -6 9 -14z"/>
<path d="M5060 2390 c-6 -11 -9 -20 -8 -20 2 0 11 9 21 20 9 11 13 20 7 20 -5
0 -14 -9 -20 -20z"/>
<path d="M5286 2383 c-8 -20 9 -40 19 -22 6 8 4 10 -5 4 -9 -5 -10 -2 -5 14 8
25 0 29 -9 4z"/>
<path d="M28 2373 c7 -3 16 -2 19 1 4 3 -2 6 -13 5 -11 0 -14 -3 -6 -6z"/>
<path d="M5024 2254 c-16 -20 -35 -43 -41 -50 -7 -7 -13 -18 -13 -24 0 -7 -7
-10 -15 -6 -8 3 -15 1 -15 -5 0 -6 -6 -9 -14 -6 -8 3 -24 -5 -37 -19 -22 -24
-46 -34 -34 -14 3 6 1 10 -5 10 -7 0 -7 7 1 23 12 21 11 21 -8 5 -14 -13 -18
-27 -15 -54 3 -25 1 -35 -6 -30 -8 5 -8 -3 0 -26 6 -18 13 -27 16 -20 4 13 32
17 32 4 0 -17 -45 -30 -65 -19 -14 7 -20 7 -23 -1 -2 -7 -8 -10 -13 -6 -5 3
-9 1 -9 -4 0 -6 -14 -19 -31 -30 l-31 -19 26 -5 c21 -4 24 -3 15 8 -13 16 1
19 19 4 6 -6 10 -7 7 -3 -3 3 4 13 15 20 12 8 17 20 13 26 -5 8 -2 8 9 0 12
-10 22 -10 48 -1 31 10 35 9 58 -17 l24 -29 18 24 c20 26 25 21 35 -35 4 -22
10 -44 14 -50 3 -5 4 -21 3 -35 -2 -15 0 -20 5 -13 17 24 34 17 52 -22 15 -30
20 -35 20 -18 1 12 -4 23 -10 25 -8 3 -6 10 5 21 10 9 15 21 11 26 -3 5 -1 13
5 16 8 5 8 11 0 20 -7 8 -9 19 -5 25 3 5 -2 13 -11 17 -10 4 -19 2 -22 -5 -6
-20 -19 -13 -26 13 -4 17 -11 22 -22 18 -13 -5 -15 -1 -9 18 4 13 15 30 26 38
21 15 26 41 7 41 -6 0 -9 -2 -6 -5 3 -3 -8 -19 -24 -36 -36 -36 -47 -30 -29
14 7 18 14 42 15 54 0 12 5 25 9 29 4 5 5 0 1 -11 -7 -20 -7 -20 14 -1 23 20
29 32 12 21 -5 -3 -10 3 -10 14 0 34 31 36 42 1 3 -10 6 -7 11 9 3 13 3 21 0
18 -8 -9 -40 27 -35 41 6 17 22 15 22 -3 0 -8 4 -15 9 -15 5 0 9 16 8 35 -1
19 -4 35 -8 35 -4 0 -20 -16 -35 -36z m-61 -132 c-3 -12 -12 -22 -20 -22 -10
0 -13 6 -9 18 5 15 4 15 -9 -2 -9 -12 -22 -17 -35 -13 -13 3 -20 0 -20 -10 0
-9 8 -13 22 -11 16 2 22 -3 23 -19 2 -29 -3 -28 -37 2 -30 26 -36 44 -15 47
24 2 32 5 67 21 19 8 36 14 37 13 1 -1 0 -12 -4 -24z m-13 -57 c0 -25 -16 -24
-18 1 -1 15 2 22 8 19 6 -3 10 -12 10 -20z"/>
<path d="M5200 2286 c0 -2 8 -10 18 -17 15 -13 16 -12 3 4 -13 16 -21 21 -21
13z"/>
<path d="M4939 2259 c-34 -20 -78 -70 -47 -54 7 3 4 -1 -6 -9 -17 -14 -17 -16
-3 -16 18 0 49 39 41 52 -3 4 -2 8 3 8 9 0 61 40 53 40 -3 0 -21 -10 -41 -21z"/>
<path d="M6467 2234 c-6 -6 16 -34 26 -34 3 0 7 9 10 20 4 14 0 20 -12 20 -10
0 -20 -3 -24 -6z"/>
<path d="M6398 2220 c-35 -10 -128 -102 -128 -125 0 -13 3 -15 13 -6 8 6 18 7
22 3 5 -4 5 1 2 11 -4 11 -1 17 8 17 8 0 14 5 13 12 -4 17 33 23 43 6 6 -9 9
-7 9 10 0 13 6 22 16 22 9 0 24 10 35 23 31 37 23 44 -33 27z"/>
<path d="M6510 2211 c0 -5 6 -11 13 -14 8 -3 -1 -18 -25 -43 -31 -32 -39 -36
-52 -25 -13 11 -19 11 -31 1 -8 -7 -15 -9 -15 -5 0 5 -16 -8 -35 -28 -22 -22
-33 -42 -29 -51 3 -9 1 -16 -5 -16 -6 0 -11 -13 -11 -30 0 -16 5 -30 10 -30 6
0 10 9 10 20 0 28 18 25 32 -5 9 -19 14 -22 25 -14 7 6 13 17 13 23 0 6 -4 4
-10 -4 -5 -8 -11 -12 -14 -9 -3 2 -1 11 4 19 7 12 11 12 25 0 14 -12 18 -12
26 1 7 11 9 11 9 -3 0 -10 8 -18 17 -18 13 0 14 -3 5 -12 -8 -8 -15 -8 -25 0
-8 7 -17 9 -20 5 -12 -11 -8 -51 7 -65 15 -16 3 -40 -24 -46 -8 -2 -24 -12
-36 -23 -11 -10 -23 -16 -27 -13 -7 8 -1 -32 8 -46 3 -5 -5 -14 -17 -21 -19
-9 -21 -9 -10 2 6 7 12 19 12 26 0 10 -11 8 -47 -5 -65 -24 -153 -135 -152
-191 0 -29 2 -32 9 -16 5 11 9 14 9 6 1 -11 4 -11 16 -1 20 17 19 30 -2 31
-14 0 -13 2 4 9 14 6 21 15 17 24 -6 16 30 41 46 31 5 -3 14 4 21 16 l12 22
12 -24 c16 -30 10 -42 -18 -33 -18 6 -20 5 -10 -8 10 -11 8 -17 -8 -29 -25
-17 -49 -61 -49 -89 0 -12 -4 -19 -8 -16 -8 5 -15 -43 -15 -94 0 -14 -2 -19
-4 -12 -3 6 -9 10 -14 6 -5 -3 -9 -1 -9 5 0 6 -21 -4 -46 -21 -26 -17 -57 -32
-69 -34 -13 -1 -33 -5 -45 -9 l-21 -7 21 -18 c17 -14 27 -17 45 -10 19 7 23 6
18 -5 -6 -17 20 -30 37 -20 8 5 6 13 -6 26 -16 18 -16 19 2 25 11 3 26 8 34
12 16 5 30 5 69 -4 23 -5 23 -6 5 -25 -10 -11 -24 -17 -31 -15 -7 3 -15 1 -18
-5 -4 -5 -12 -6 -18 -2 -7 3 -3 -3 7 -15 19 -22 16 -37 -7 -37 -7 0 -13 -9
-15 -19 -3 -14 0 -17 13 -12 9 3 26 1 37 -5 17 -9 18 -13 7 -20 -11 -7 -10 -9
3 -9 11 0 24 14 32 33 10 21 15 26 15 14 1 -11 -8 -30 -19 -44 -18 -23 -19
-50 -1 -39 4 3 13 1 21 -5 12 -7 10 -9 -7 -9 -13 0 -23 -4 -23 -9 0 -6 -8 -10
-17 -11 -10 0 -36 -2 -58 -4 -22 -2 -48 1 -58 6 -23 12 -66 0 -46 -13 8 -4 24
-6 36 -2 13 3 23 1 23 -4 0 -16 -39 -46 -63 -49 -12 -1 -34 -6 -50 -9 -23 -6
-26 -5 -21 9 3 9 1 16 -6 16 -6 0 -8 6 -5 13 4 6 -1 3 -10 -8 -9 -11 -19 -19
-23 -18 -4 1 -6 -4 -6 -11 1 -10 -5 -10 -27 1 -30 15 -40 30 -14 19 8 -3 15
-2 15 3 0 4 10 13 23 19 l22 11 -22 0 c-24 1 -31 15 -13 24 6 3 5 4 -2 3 -7
-2 -12 -12 -11 -24 3 -24 -32 -36 -81 -26 -34 6 -57 -8 -35 -22 6 -3 15 -1 19
6 5 8 10 8 14 2 9 -15 -49 -33 -63 -19 -8 8 -14 8 -23 -1 -9 -9 -9 -12 3 -12
24 0 -12 -20 -38 -20 -12 0 -24 -6 -26 -12 -4 -10 -6 -10 -6 0 -1 7 4 22 9 33
14 26 8 24 -26 -8 -16 -15 -28 -34 -26 -42 2 -12 1 -13 -6 -3 -13 19 -44 3
-37 -19 4 -11 2 -19 -5 -19 -6 0 -8 5 -5 10 8 13 4 13 -39 -5 -32 -13 -35 -18
-26 -39 5 -13 6 -27 2 -32 -4 -4 -2 -4 5 -1 6 4 9 17 6 30 -5 21 -5 21 13 4
15 -14 16 -21 8 -35 -6 -9 -15 -17 -20 -17 -5 0 -15 -4 -21 -8 -9 -6 -11 -3
-7 10 6 15 4 15 -9 -2 -20 -24 -21 -42 -4 -48 9 -4 9 -6 -1 -6 -7 -1 -17 10
-22 24 -5 14 -15 25 -22 25 -9 0 -8 -3 2 -10 9 -6 10 -10 3 -10 -7 0 -17 10
-24 21 -8 15 -8 19 0 15 10 -6 15 6 12 26 0 4 6 5 14 2 8 -4 15 -2 15 4 0 16
-46 23 -75 12 -15 -6 -31 -7 -37 -4 -16 10 -158 12 -164 3 -3 -5 0 -9 5 -9 6
0 11 -5 11 -12 0 -6 7 -19 16 -29 8 -9 17 -26 18 -36 2 -10 10 -18 18 -17 8 1
15 -8 16 -20 0 -11 6 -22 12 -24 5 -2 8 -8 5 -12 -3 -5 -2 -11 3 -14 11 -7 12
26 1 40 -5 6 -3 19 5 30 17 22 36 10 39 -24 0 -11 4 -19 8 -16 16 10 18 -30 2
-42 -17 -13 -17 -13 0 -14 13 0 17 -5 12 -19 -3 -11 -1 -22 4 -25 6 -4 8 -13
4 -21 -3 -8 0 -15 6 -15 10 0 14 12 9 26 -2 3 8 12 22 21 14 8 17 12 8 9 -9
-3 -21 1 -27 8 -9 10 -6 15 10 19 22 6 21 34 0 29 -7 -1 -10 2 -7 7 4 5 17 8
30 5 14 -2 32 4 46 16 20 18 31 22 50 22 3 0 15 -3 28 -7 15 -4 22 -2 22 7 0
13 47 58 62 58 5 0 6 5 3 10 -3 6 -1 10 5 10 7 0 9 -8 5 -20 -4 -12 -2 -20 5
-20 6 0 9 -4 5 -10 -3 -5 -13 -6 -22 -3 -12 5 -14 3 -7 -8 11 -18 14 -39 6
-39 -4 0 -13 -10 -21 -21 -10 -18 -11 -23 0 -30 10 -6 7 -10 -11 -17 -14 -6
-38 -15 -55 -22 -29 -11 -29 -12 -11 -26 15 -11 17 -17 8 -24 -6 -6 -10 -7 -7
-4 6 9 -14 34 -27 34 -6 0 -4 -8 3 -17 13 -17 13 -17 -5 -3 -18 14 -19 13 -13
-2 6 -17 -14 -41 -39 -44 -18 -3 -28 14 -17 29 4 7 -4 -1 -19 -18 -15 -16 -28
-26 -28 -21 0 5 -7 3 -15 -4 -11 -9 -15 -9 -15 -1 0 6 7 14 15 17 8 4 15 11
15 16 0 6 -5 6 -14 -1 -8 -6 -18 -11 -22 -10 -5 1 -11 0 -14 -1 -3 -1 -15 -3
-28 -4 -16 -2 -19 1 -12 8 5 5 10 15 10 21 0 5 -10 -5 -21 -23 -20 -31 -22
-32 -40 -16 -10 9 -16 20 -14 24 3 4 -2 11 -10 14 -18 7 -55 -14 -55 -30 0 -6
-11 -20 -25 -30 -14 -10 -23 -24 -21 -31 3 -6 -2 -14 -10 -17 -16 -6 -21 -116
-4 -116 6 0 9 3 8 8 -4 14 23 80 38 92 7 7 14 20 14 30 0 9 8 25 19 34 17 16
19 16 25 0 4 -10 -1 -25 -11 -37 -10 -11 -12 -17 -5 -13 20 12 14 -3 -13 -32
-30 -33 -34 -58 -6 -43 10 6 21 7 25 4 4 -4 13 3 21 14 10 14 22 19 35 16 20
-5 23 -1 35 51 5 22 9 26 18 17 16 -16 27 -14 27 5 0 8 -4 12 -10 9 -15 -9
-12 8 5 31 13 18 14 18 15 1 0 -10 12 -30 26 -44 19 -18 22 -28 14 -33 -18
-11 24 -31 58 -28 21 2 27 -1 26 -15 -2 -15 1 -16 15 -5 9 6 22 19 29 27 11
14 14 14 22 1 7 -11 10 -11 10 -2 0 7 4 11 9 8 5 -4 12 0 15 6 5 11 7 11 12 0
3 -6 10 -10 15 -6 15 9 10 -24 -7 -40 -8 -9 -12 -16 -7 -17 4 0 -10 -9 -32
-19 l-40 -19 43 4 c30 2 48 9 58 24 17 24 34 28 34 7 0 -8 7 -17 16 -20 21 -8
26 -8 20 3 -7 10 19 23 28 14 3 -3 1 -14 -5 -25 -6 -11 -8 -22 -5 -26 3 -3 6
0 6 6 0 7 8 12 17 12 15 0 14 -2 -3 -14 -12 -9 -23 -11 -29 -5 -15 15 -25 10
-25 -11 0 -25 -8 -25 -27 -3 -8 10 -12 13 -9 6 4 -6 2 -14 -4 -18 -5 -3 -10
-11 -10 -16 0 -6 6 -7 13 -3 7 5 6 0 -3 -11 -14 -17 -13 -18 5 -12 18 6 18 5
4 -5 -9 -7 -16 -16 -15 -20 1 -3 -3 -10 -8 -15 -5 -4 -6 -3 -3 3 4 6 -3 20
-16 30 -16 14 -18 14 -9 2 14 -18 6 -27 -21 -23 -9 2 -15 0 -12 -5 3 -4 -4
-10 -15 -13 -22 -6 -28 -27 -7 -27 17 0 33 12 40 30 4 11 6 10 6 -5 1 -15 3
-17 10 -7 7 11 9 11 14 -2 4 -11 -1 -18 -18 -22 -13 -3 -29 -12 -35 -19 -12
-14 -40 -9 -52 9 -5 7 -8 7 -8 -2 0 -7 -5 -10 -10 -7 -6 4 -8 10 -5 15 3 4 -3
7 -12 5 -10 -1 -17 -8 -15 -14 1 -7 -8 -5 -22 4 -23 15 -25 15 -30 -2 -5 -15
-14 -18 -43 -15 -29 4 -35 2 -30 -11 8 -21 -2 -28 -24 -16 -14 7 -21 5 -31
-11 -14 -21 -43 -27 -53 -10 -4 6 -12 7 -18 3 -17 -11 -38 -13 -32 -3 8 12
-20 19 -36 9 -23 -15 -39 -11 -32 9 7 16 6 16 -11 -1 -18 -18 -29 -21 -39 -11
-11 11 5 34 23 34 28 0 33 18 8 26 -13 4 -27 7 -31 6 -21 -6 6 17 33 28 l31
13 -40 41 c-38 39 -40 43 -35 89 3 27 12 67 20 90 10 27 11 44 4 51 -7 7 -10
7 -10 0 0 -6 -7 -11 -15 -11 -8 0 -15 4 -15 8 0 5 -7 6 -15 3 -8 -3 -14 -13
-13 -22 1 -10 0 -39 0 -67 l-2 -50 -16 30 c-8 17 -14 45 -12 63 2 17 0 32 -5
32 -4 0 -5 4 -2 10 3 6 -1 7 -10 4 -9 -4 -14 -13 -11 -20 3 -7 0 -16 -6 -20
-7 -4 -8 -3 -4 4 4 7 2 12 -4 12 -15 0 20 58 37 62 9 2 7 7 -6 15 -16 10 -23
10 -33 0 -6 -8 -22 -11 -35 -9 -13 2 -29 -1 -37 -7 -11 -9 -18 -8 -30 4 -9 9
-16 13 -17 8 0 -4 -2 -19 -5 -32 -3 -18 -1 -21 8 -13 7 5 34 13 60 17 44 7 47
6 45 -14 -1 -12 -6 -21 -11 -21 -5 0 -18 -7 -28 -16 -10 -10 -37 -18 -64 -19
-25 -1 -49 -7 -54 -14 -6 -11 -9 -11 -13 0 -3 11 -8 11 -17 3 -9 -9 -9 -28 -3
-72 7 -44 6 -59 -2 -56 -16 7 -35 64 -35 107 0 20 -2 37 -5 37 -9 0 -50 -25
-57 -34 -7 -10 -68 -16 -65 -7 1 3 -2 6 -8 6 -5 0 -9 -8 -8 -17 2 -11 -7 -19
-30 -23 -17 -4 -37 -11 -43 -16 -29 -24 -63 26 -43 63 14 25 3 52 -17 44 -9
-3 -12 -2 -9 4 4 6 0 17 -7 25 -7 8 -19 21 -26 30 -18 21 -35 19 -29 -5 3 -12
-2 -27 -11 -36 -15 -15 -14 -16 4 -10 15 4 21 2 21 -9 0 -11 -11 -15 -39 -15
-21 0 -38 4 -38 9 0 12 -51 4 -64 -10 -6 -6 -5 -9 3 -9 7 0 9 -5 6 -10 -4 -6
-11 -8 -16 -5 -5 4 -9 1 -9 -4 0 -6 -10 -12 -22 -12 -17 -1 -19 -2 -5 -6 9 -2
17 -9 17 -14 0 -5 4 -9 8 -9 10 0 37 50 34 62 -1 5 2 8 7 8 13 0 20 -49 7 -54
-7 -3 -6 -8 3 -14 7 -5 11 -15 7 -21 -5 -7 -1 -9 11 -5 16 6 16 5 3 -7 -8 -8
-24 -23 -34 -34 -10 -11 -16 -14 -12 -7 4 6 2 12 -3 12 -12 0 -12 -1 -16 -38
-2 -18 0 -20 11 -11 22 18 16 -2 -7 -27 l-22 -23 39 6 c36 5 46 13 87 67 18
25 88 30 84 6 -1 -8 -6 -18 -11 -21 -13 -10 2 -42 15 -34 6 4 13 -2 16 -13 4
-18 9 -19 31 -11 38 14 49 -4 23 -37 -11 -15 -21 -21 -21 -14 0 8 -7 10 -17 5
-33 -12 -88 -14 -96 -2 -6 8 -7 5 -3 -7 5 -14 2 -17 -9 -12 -10 3 -13 2 -10
-5 4 -5 15 -7 25 -4 11 3 20 0 23 -10 4 -8 13 -12 21 -9 8 3 17 1 21 -5 3 -6
3 -11 -2 -12 -4 0 -20 -2 -36 -4 -18 -2 -25 0 -21 7 4 6 -7 3 -25 -8 -17 -10
-31 -22 -31 -27 0 -4 -9 -3 -21 3 -24 14 -40 4 -19 -11 13 -9 13 -10 -1 -6 -9
3 -22 0 -28 -6 -8 -8 -11 -8 -11 1 0 7 5 12 10 12 15 0 12 16 -2 18 -7 0 -31
3 -53 6 -21 2 -47 0 -57 -5 -10 -5 -18 -6 -18 -1 0 4 -12 13 -27 19 l-28 10
47 22 c26 12 50 30 53 41 4 11 11 18 16 15 5 -4 9 -1 9 4 0 14 4 14 -57 -9
-39 -14 -53 -16 -57 -7 -5 9 -7 9 -12 0 -3 -7 -13 -13 -21 -13 -12 0 -13 -3
-4 -14 8 -10 9 -16 1 -21 -5 -3 -10 -1 -10 5 0 6 -5 8 -12 4 -7 -4 -24 -9 -38
-10 l-25 -3 28 15 c15 8 27 17 27 20 0 3 -5 2 -11 -2 -7 -4 -28 -8 -47 -10
-20 -1 -39 -9 -44 -17 -8 -15 -45 -15 -155 -2 -25 3 -43 0 -43 -5 0 -6 5 -10
10 -10 18 0 11 -18 -10 -25 -11 -3 -20 -13 -20 -21 0 -18 -8 -18 -44 1 -29 15
-58 14 -55 -2 6 -36 -50 -51 -91 -25 -27 17 -103 24 -93 8 4 -5 1 -6 -6 -1
-51 31 -212 45 -353 30 -30 -3 -48 -1 -48 6 0 5 -5 7 -10 4 -6 -3 -19 -3 -30
0 -15 5 -19 12 -14 31 6 24 -10 35 -19 12 -3 -11 -9 -10 -26 0 -27 16 -28 16
-34 -9 -4 -14 -2 -19 7 -16 7 3 13 -1 13 -8 0 -10 -5 -11 -17 -5 -9 5 -22 5
-30 0 -7 -4 -25 -4 -39 1 -13 6 -34 9 -45 8 -12 -1 -28 -1 -36 0 -13 1 -13 3
-1 10 8 5 21 7 30 4 13 -4 13 -3 2 5 -8 6 -42 9 -77 8 -41 -1 -60 2 -56 9 14
22 8 30 -22 29 -93 -4 -89 -2 -84 -29 4 -18 0 -26 -15 -31 -15 -5 -16 -8 -7
-14 7 -5 25 -4 39 1 24 8 24 8 8 -5 -14 -10 -15 -15 -5 -19 7 -3 -3 -5 -22 -5
-19 1 -40 6 -47 11 -7 5 -26 6 -42 2 -33 -7 -71 1 -71 15 0 5 7 15 15 24 14
14 12 15 -20 12 -26 -2 -35 2 -35 13 0 11 -4 10 -15 -5 -15 -19 -15 -19 -9 1
4 15 4 17 -4 6 -6 -8 -9 -22 -7 -31 2 -13 -4 -15 -32 -12 -26 3 -33 8 -28 20
5 14 4 14 -12 0 -38 -32 -60 -30 -81 7 -11 19 -11 19 -12 -4 0 -16 -4 -21 -14
-18 -8 3 -16 2 -18 -4 -2 -5 -14 -2 -26 7 -35 25 -18 37 60 43 9 0 19 11 21
24 l4 22 2 -22 c1 -22 1 -22 46 -5 30 11 45 22 45 34 0 12 7 18 21 18 11 0 17
-5 14 -10 -3 -6 1 -10 9 -10 20 0 25 32 6 48 -13 12 -13 13 2 8 9 -3 19 0 22
7 2 7 2 -6 -1 -27 l-5 -39 26 16 c15 10 27 13 31 7 4 -6 12 -4 21 4 8 9 21 13
28 10 8 -3 17 -1 21 5 4 7 -1 9 -12 5 -16 -5 -16 -4 1 10 11 9 15 16 9 16 -7
0 -9 9 -4 27 5 16 14 27 20 25 7 -1 15 7 18 18 3 11 9 17 14 14 5 -3 9 0 9 6
0 7 -7 10 -15 6 -8 -3 -15 -1 -15 5 0 6 -6 9 -12 6 -17 -5 -90 21 -100 36 -5
8 -8 5 -8 -8 0 -15 -2 -17 -9 -6 -12 19 -30 5 -24 -19 3 -11 0 -20 -6 -20 -6
0 -11 11 -11 25 0 32 3 41 13 37 5 -1 5 2 2 8 -4 6 -13 9 -21 6 -19 -7 -13 32
7 45 8 5 9 9 3 9 -12 0 -40 -29 -37 -39 1 -3 -1 -8 -3 -10 -2 -2 -4 0 -4 5 0
5 -9 10 -21 10 -14 0 -22 -8 -26 -28 -3 -15 -9 -28 -13 -28 -12 0 -20 29 -10
35 15 9 12 25 -5 25 -8 0 -15 4 -15 9 0 5 -7 12 -16 15 -15 6 -15 4 0 -19 10
-14 12 -25 6 -25 -6 0 -8 -5 -4 -12 5 -7 2 -9 -8 -5 -9 3 -20 1 -26 -5 -7 -7
-10 -3 -9 13 0 13 -3 33 -7 44 -6 15 -6 17 3 5 5 -8 13 -11 17 -7 4 3 2 13 -5
21 -11 13 -49 23 -116 30 -43 4 -75 23 -69 41 5 11 2 13 -9 9 -12 -4 -18 2
-23 20 -5 22 -9 24 -21 14 -10 -8 -17 -8 -21 -1 -10 14 -51 23 -58 12 -3 -5
-14 -9 -24 -9 -18 0 -18 3 -6 45 14 45 14 45 -20 82 -19 20 -34 31 -34 24 0
-7 -5 -9 -11 -5 -6 3 -9 17 -6 30 2 14 -1 25 -9 28 -8 3 -14 1 -14 -4 0 -17
-15 -11 -28 11 -8 12 -9 18 -3 14 6 -3 11 -2 11 4 0 11 -19 24 -39 28 -25 3
-35 21 -21 38 11 13 10 15 -6 14 -44 -4 -57 0 -45 15 10 11 10 20 1 36 -9 18
-8 25 6 41 19 22 15 24 -56 33 -43 5 -38 -2 12 -18 15 -4 12 -10 -17 -39 -26
-25 -32 -36 -23 -45 8 -8 8 -16 -3 -28 -12 -15 -12 -17 0 -9 11 6 13 4 8 -8
-3 -8 0 -17 7 -20 7 -3 13 5 14 21 3 33 9 39 29 26 25 -16 26 -31 4 -53 -21
-21 -20 -23 14 -25 11 -1 25 -13 33 -29 16 -33 7 -51 -12 -25 -9 13 -16 14
-24 6 -8 -8 -15 -8 -26 1 -12 10 -14 9 -9 -8 3 -12 11 -21 18 -21 7 0 11 -10
10 -24 -2 -19 1 -23 16 -19 10 3 25 -2 34 -10 21 -21 19 -25 -10 -19 -25 4
-30 -3 -25 -38 1 -8 -2 -11 -6 -7 -4 4 -14 -3 -20 -15 l-13 -23 -9 24 c-6 16
-11 20 -16 13 -4 -7 -4 -12 1 -12 4 0 -9 -11 -30 -24 -22 -14 -48 -22 -60 -19
-15 3 -18 2 -9 -5 11 -7 10 -11 -1 -20 -11 -10 -13 -7 -12 16 1 23 -3 28 -22
28 -13 0 -23 -4 -23 -8 0 -4 6 -8 13 -8 9 0 8 -3 -2 -9 -11 -7 -10 -11 5 -19
16 -9 15 -11 -9 -8 -16 2 -32 8 -36 14 -5 8 -14 8 -32 -2 -28 -15 -54 -8 -54
14 0 11 -9 14 -31 12 -23 -2 -36 2 -45 16 -8 10 -27 22 -42 26 -21 5 -27 11
-23 23 5 12 1 14 -19 11 -16 -3 -30 1 -42 14 -16 18 -16 19 6 25 15 4 19 8 11
13 -16 10 -5 73 15 90 12 10 13 7 5 -19 -10 -35 2 -33 33 6 23 29 38 29 34 1
-2 -13 -2 -17 0 -10 7 18 23 4 23 -20 0 -12 3 -19 6 -15 9 9 -16 107 -28 107
-5 0 -6 -4 -3 -10 8 -13 2 -13 -27 3 -42 21 -63 48 -59 76 4 35 3 34 46 17
l37 -16 -16 25 c-21 32 -20 35 7 35 20 0 20 2 -8 20 -16 11 -40 20 -52 20 -13
0 -23 5 -23 10 0 6 7 10 15 10 23 0 18 17 -7 24 -34 9 -76 7 -60 -2 9 -6 5
-12 -14 -21 -19 -8 -30 -9 -40 -1 -7 7 -30 10 -51 8 -21 -3 -53 2 -72 9 -18 8
-36 12 -39 9 -3 -3 -11 -1 -18 5 -8 7 -19 7 -30 1 -14 -8 -12 -10 12 -17 26
-7 27 -8 9 -15 -23 -9 -56 15 -49 35 4 10 -23 25 -44 24 -6 0 -32 30 -32 38
-1 11 -50 46 -50 35 0 -19 -33 -22 -57 -7 -13 9 -29 13 -36 9 -7 -4 -4 2 5 13
10 11 18 24 18 30 0 6 8 9 18 6 10 -2 19 -10 19 -18 0 -7 -6 -11 -13 -8 -6 2
-15 0 -18 -6 -12 -18 12 -21 55 -6 41 15 45 15 57 -2 12 -17 13 -16 10 7 -2
20 -8 25 -30 23 -23 -2 -47 21 -34 34 14 14 56 11 66 -4 7 -12 10 -13 7 -3 -2
8 5 24 15 35 12 12 17 28 14 41 -6 22 34 70 47 57 4 -3 7 -1 7 5 0 7 13 12 28
12 18 0 29 5 29 14 0 12 -5 13 -20 4 -14 -7 -18 -7 -12 2 4 6 -4 21 -18 34
-20 18 -27 21 -31 10 -3 -8 0 -13 7 -11 6 1 13 -7 15 -18 6 -40 -81 -94 -95
-60 -3 8 -12 15 -20 15 -8 0 -11 5 -8 12 4 7 0 5 -8 -4 -8 -10 -18 -14 -22
-10 -5 4 -5 1 -1 -5 4 -7 18 -13 31 -13 28 0 41 -25 14 -27 -10 -1 -21 2 -24
8 -4 5 -21 9 -38 9 -26 0 -33 -4 -34 -20 -1 -11 3 -20 8 -20 6 0 7 -5 3 -11
-5 -8 -9 -8 -14 1 -5 9 -9 9 -14 1 -4 -6 -13 -8 -19 -4 -9 5 -9 3 -1 -8 20
-27 15 -73 -11 -102 -14 -15 -30 -27 -35 -27 -6 0 -10 -7 -10 -15 0 -22 -39
-40 -54 -24 -8 9 -7 11 6 6 26 -9 44 19 24 38 -12 13 -13 21 -6 36 6 11 7 19
3 18 -22 -4 -43 2 -43 12 0 6 9 8 23 4 19 -6 19 -4 -7 17 -28 24 -28 24 -5 23
13 0 30 -4 36 -8 9 -6 11 -3 7 8 -5 11 -2 14 10 9 11 -4 16 -1 16 10 0 9 5 16
11 16 8 0 10 16 6 50 -4 35 -3 49 6 47 10 -2 12 11 8 43 0 6 -12 10 -26 10
-14 0 -25 5 -25 11 0 7 10 9 26 5 19 -5 30 -2 39 11 11 15 11 21 -6 36 -23 22
-35 65 -21 79 7 7 1 21 -20 44 -36 39 -58 44 -58 12 0 -20 -1 -21 -20 -3 -18
16 -20 16 -26 1 -3 -9 -12 -16 -20 -16 -18 0 -18 -14 1 -30 26 -22 -1 -37 -31
-17 -7 4 -15 0 -18 -9 -9 -23 -36 1 -36 32 0 13 -4 24 -10 24 -5 0 -10 7 -10
15 0 8 5 15 11 15 5 0 7 -5 3 -12 -4 -7 -3 -8 4 -4 7 4 12 14 12 22 0 8 -5 12
-10 9 -6 -3 -19 -3 -31 0 -14 5 -17 10 -10 19 7 9 6 19 -5 34 -19 28 -34 28
-34 1 0 -11 4 -18 9 -14 5 3 12 1 16 -5 3 -5 -1 -10 -9 -10 -14 0 -16 -91 -16
-895 l0 -895 3335 0 3335 0 0 1050 0 1051 -28 10 c-15 6 -37 11 -50 12 -12 1
-22 7 -22 12 1 21 12 45 21 45 5 0 9 5 9 10 0 6 -16 10 -35 10 -19 0 -35 5
-35 10 0 6 -4 10 -10 10 -5 0 -10 -4 -10 -9z m-50 -108 c-1 -19 -19 -35 -44
-37 -40 -5 -41 11 -1 18 20 4 33 11 30 17 -4 5 -1 9 4 9 6 0 11 -3 11 -7z
m154 -32 c-6 -6 -24 19 -24 34 1 6 7 1 15 -9 8 -11 12 -22 9 -25z m-80 18 c-3
-5 -16 -8 -29 -7 -31 3 -25 13 9 14 14 1 23 -2 20 -7z m16 -30 c0 -12 -36 -30
-44 -22 -3 3 -1 11 4 18 11 13 40 16 40 4z m-40 -45 c0 -1 -8 -1 -17 0 -9 2
-24 13 -32 26 l-16 24 33 -24 c17 -13 32 -25 32 -26z m-85 16 c3 -5 1 -10 -4
-10 -6 0 -11 5 -11 10 0 6 2 10 4 10 3 0 8 -4 11 -10z m135 -64 c0 -11 -19
-15 -25 -6 -3 5 1 10 9 10 9 0 16 -2 16 -4z m-45 -145 c-9 -15 -74 -33 -92
-27 -19 8 -8 22 22 29 36 8 76 7 70 -2z m-40 -61 c-3 -5 -11 -10 -16 -10 -6 0
-7 5 -4 10 3 6 11 10 16 10 6 0 7 -4 4 -10z m-6452 -25 c-7 -21 -12 -19 -10 4
0 11 5 18 9 15 4 -3 5 -11 1 -19z m6247 -155 c0 -5 -2 -10 -4 -10 -3 0 -8 5
-11 10 -3 6 -1 10 4 10 6 0 11 -4 11 -10z m140 -10 c0 -5 -5 -10 -11 -10 -5 0
-7 5 -4 10 3 6 8 10 11 10 2 0 4 -4 4 -10z m-6310 -36 c0 -8 -4 -12 -10 -9 -5
3 -10 13 -10 21 0 8 5 12 10 9 6 -3 10 -13 10 -21z m156 9 c7 -10 13 -25 13
-33 0 -10 -3 -8 -9 5 -5 11 -9 15 -9 8 -1 -15 -37 -5 -53 15 -11 13 -10 15 10
10 12 -4 22 -2 22 3 0 14 12 11 26 -8z m6104 -17 c0 -3 -4 -8 -10 -11 -5 -3
-10 -1 -10 4 0 6 5 11 10 11 6 0 10 -2 10 -4z m-6077 -89 c-3 -5 1 -13 8 -18
10 -6 11 -11 3 -19 -18 -18 -40 15 -24 35 9 10 9 15 1 15 -6 0 -11 8 -11 18 1
16 2 15 15 -2 8 -10 12 -23 8 -29z m5942 24 c3 -5 1 -12 -5 -16 -5 -3 -10 1
-10 9 0 18 6 21 15 7z m332 -31 c-5 -33 -18 -35 -15 -3 1 18 6 29 10 27 4 -3
6 -14 5 -24z m-342 -10 c-3 -5 1 -10 9 -10 8 0 18 5 21 10 12 19 37 11 33 -12
-3 -25 -56 -44 -73 -27 -13 13 -13 32 0 41 14 11 17 10 10 -2z m-5702 -26 c12
-12 -5 -32 -24 -27 -22 6 -25 19 -6 26 17 8 23 8 30 1z m5902 -14 c-3 -5 -16
-10 -28 -9 -21 0 -21 1 -2 9 28 12 37 12 30 0z m-68 -13 c-2 -6 -13 -11 -25
-12 -15 -1 -19 2 -12 10 12 14 42 16 37 2z m-45 -69 c-7 -7 -12 -20 -12 -31 0
-12 -6 -17 -17 -15 -22 4 -29 28 -9 28 9 0 19 7 22 15 4 8 11 15 17 15 7 0 7
-4 -1 -12z m71 -18 c3 -11 0 -18 -6 -17 -6 1 -15 -14 -21 -33 -17 -54 -26 -64
-39 -46 -9 12 -16 13 -27 5 -13 -9 -12 -10 3 -5 9 3 17 2 17 -3 0 -19 -50 -18
-67 1 -20 22 -8 38 28 40 31 2 94 44 80 53 -17 10 -13 25 8 25 10 0 21 -9 24
-20z m-193 -20 c0 -5 -5 -10 -11 -10 -5 0 -7 -4 -4 -10 7 -11 -8 -14 -18 -3
-8 7 11 33 24 33 5 0 9 -4 9 -10z m-5833 -76 c-3 -3 -12 -4 -19 -1 -8 3 -5 6
6 6 11 1 17 -2 13 -5z m77 -61 c4 -4 17 -8 28 -8 30 0 45 -55 20 -70 -29 -17
-50 -13 -61 11 -9 21 -32 30 -66 25 -5 -1 3 10 18 24 28 25 48 31 61 18z m276
-43 c8 -5 10 -10 4 -10 -7 0 -22 9 -35 21 -19 16 -20 18 -4 10 11 -6 27 -15
35 -21z m160 -10 c-8 -6 -24 -15 -35 -21 -16 -8 -15 -6 4 10 13 12 28 21 35
21 6 0 4 -5 -4 -10z m-155 -21 c3 -4 -7 -7 -22 -6 -19 1 -28 -3 -31 -17 -6
-27 11 -38 39 -28 28 11 49 -5 49 -37 0 -25 -20 -38 -31 -20 -6 10 -9 7 -9
-12 0 -15 -11 -36 -26 -50 -23 -21 -25 -21 -16 -3 6 12 7 26 2 34 -5 8 -7 19
-4 25 3 5 -1 2 -8 -7 -11 -15 -13 -15 -24 0 -10 14 -11 12 -7 -13 4 -28 3 -29
-10 -12 -13 15 -13 24 -1 64 8 26 14 51 13 57 -3 25 2 35 19 38 23 5 61 -2 67
-13z m708 -26 c-3 -8 -13 -11 -25 -7 -15 4 -18 3 -13 -6 5 -9 4 -11 -4 -6 -9
6 -9 11 0 22 6 7 15 11 20 8 5 -3 9 3 9 13 0 14 2 15 9 4 5 -8 7 -20 4 -28z
m4432 -3 c17 -11 25 -20 19 -20 -5 0 -19 6 -29 14 -11 8 -25 12 -32 9 -7 -3
-13 0 -13 6 0 17 22 13 55 -9z m180 0 c-20 -22 -2 -39 21 -19 8 6 17 9 21 5 3
-3 1 -6 -6 -6 -7 0 -9 -5 -6 -10 4 -6 11 -7 17 -4 6 4 8 2 5 -4 -4 -5 -16 -8
-27 -5 -13 4 -20 0 -20 -9 0 -10 8 -13 29 -10 16 2 31 -1 35 -6 9 -15 -52 -26
-68 -13 -8 7 -18 11 -22 10 -5 -1 -20 -1 -34 0 -18 1 -21 4 -11 10 7 5 10 14
7 20 -4 6 0 11 9 11 10 0 13 -5 9 -12 -4 -7 -3 -8 4 -4 20 12 13 26 -13 26
-14 0 -25 3 -25 6 0 14 34 31 63 32 27 1 28 0 12 -18z m-279 -5 c-20 -15 -36
-19 -36 -10 0 5 38 23 50 24 3 0 -4 -6 -14 -14z m-4888 -17 c15 -15 15 -28 1
-28 -5 0 -7 5 -4 10 9 14 -1 12 -36 -6 -29 -14 -31 -14 -27 3 2 10 10 17 16
16 7 -2 12 2 12 7 0 14 23 13 38 -2z m5026 -33 c6 -17 -28 -35 -65 -35 -29 0
-23 16 14 34 40 19 43 20 51 1z m-4997 -22 c3 -7 0 -20 -6 -27 -10 -12 -8 -13
10 -9 19 5 20 3 14 -18 -4 -13 -15 -33 -25 -43 -16 -16 -21 -17 -35 -6 -13 11
-15 10 -9 -4 4 -9 3 -16 -2 -15 -16 4 -44 -13 -38 -22 3 -5 -6 -4 -20 3 -35
15 -33 26 4 20 26 -4 30 -1 30 19 0 22 0 22 -16 3 -15 -18 -15 -18 -11 9 3 20
1 27 -9 23 -22 -9 -7 37 21 62 29 24 84 27 92 5z m4743 -12 c0 -5 -7 -11 -14
-14 -10 -4 -13 -1 -9 9 6 15 23 19 23 5z m-4147 -16 c0 -6 -7 -11 -16 -13 -12
-3 -15 1 -11 13 7 17 25 17 27 0z m4052 -35 c0 -7 -5 -15 -12 -17 -7 -3 -11 4
-10 16 1 23 22 23 22 1z m275 10 c0 -5 -5 -10 -11 -10 -5 0 -7 5 -4 10 3 6 8
10 11 10 2 0 4 -4 4 -10z m-4311 -21 c-7 -4 -17 -5 -22 -2 -5 3 -3 9 4 14 7 4
17 5 22 2 5 -3 3 -9 -4 -14z m4265 0 c3 1 6 -1 6 -4 0 -3 -3 -5 -6 -4 -4 0
-11 -5 -15 -13 -6 -9 -9 -3 -9 17 0 20 3 26 9 17 4 -8 11 -13 15 -13z m13 -48
c-2 -29 -38 -42 -62 -24 -17 13 -17 15 -2 10 11 -4 25 1 37 13 25 25 29 25 27
1z m-90 3 c-3 -3 -12 -4 -19 -1 -8 3 -5 6 6 6 11 1 17 -2 13 -5z m-287 -14 c0
-5 -2 -10 -4 -10 -3 0 -8 5 -11 10 -3 6 -1 10 4 10 6 0 11 -4 11 -10z m-3764
-45 c4 -8 10 -12 15 -9 5 3 6 -2 3 -11 -4 -11 -13 -14 -28 -9 -28 9 -29 11
-23 29 8 19 26 19 33 0z m4161 -1 c-3 -3 -12 -4 -19 -1 -8 3 -5 6 6 6 11 1 17
-2 13 -5z m-4293 -73 c3 -5 -1 -11 -9 -15 -9 -3 -15 0 -15 9 0 16 16 20 24 6z
m-164 -41 c-20 -13 -33 -13 -25 0 3 6 14 10 23 10 15 0 15 -2 2 -10z m383 -24
c22 0 22 -7 -3 -34 -11 -12 -20 -27 -20 -33 0 -7 8 -5 20 6 11 10 20 14 20 9
0 -5 6 2 13 15 6 14 18 26 25 29 19 6 -10 -47 -38 -71 -21 -18 -21 -19 -3 -33
17 -14 16 -15 -7 -9 -21 6 -19 2 13 -21 38 -28 50 -48 22 -37 -10 3 -15 1 -13
-7 2 -7 -3 -15 -11 -18 -10 -3 -11 0 -5 9 7 12 5 12 -9 0 -12 -9 -17 -10 -17
-2 0 7 -3 10 -8 7 -9 -5 -43 19 -44 31 0 4 -5 7 -11 5 -7 -2 -9 0 -5 4 4 4 2
14 -4 23 -10 13 -9 14 0 5 14 -12 62 -7 62 6 0 5 -3 16 -6 24 -5 14 -9 14 -22
4 -9 -8 -13 -8 -9 -2 4 7 0 17 -8 24 -31 26 -2 90 34 74 9 -4 24 -7 34 -8z
m-547 -11 c13 -10 15 -14 5 -15 -29 0 1 -14 40 -17 22 -2 50 -8 62 -14 17 -7
11 -8 -23 -4 -25 3 -54 6 -65 7 -22 2 -54 28 -35 28 6 0 8 5 5 10 -5 8 -11 7
-21 -1 -12 -10 -13 -9 -8 5 8 20 15 20 40 1z m4304 -15 c8 6 24 10 35 10 19
-1 18 -2 -4 -21 -22 -18 -26 -18 -47 -4 -13 8 -25 11 -28 6 -3 -5 4 -11 15
-14 26 -7 16 -27 -14 -27 -16 0 -18 3 -8 9 9 6 10 10 2 16 -9 5 -9 10 0 21 8
9 16 11 23 5 7 -6 17 -6 26 -1z m-3588 -45 c-8 -16 -9 -16 -15 -1 -4 10 -3 15
3 11 6 -3 10 -1 10 6 0 7 3 10 6 6 3 -3 2 -13 -4 -22z m38 11 c0 -2 -8 -10
-17 -17 -16 -13 -17 -12 -4 4 13 16 21 21 21 13z m30 -32 c0 -16 -16 -19 -25
-4 -8 13 4 32 16 25 5 -4 9 -13 9 -21z m-104 0 c-10 -25 3 -34 29 -22 14 6 27
9 30 6 8 -8 -6 -38 -17 -38 -5 0 -6 5 -2 12 4 7 3 8 -4 4 -9 -5 -9 -13 -1 -29
12 -22 12 -22 -10 -3 -16 14 -21 16 -21 5 -1 -10 -5 -8 -16 6 -8 11 -22 18
-32 17 -14 -3 -14 -2 -2 15 15 19 41 43 48 43 2 0 1 -7 -2 -16z m3524 -9 c-27
-14 -36 -13 -25 4 3 6 16 11 28 11 21 -1 21 -1 -3 -15z m-535 -15 c3 -5 2 -10
-4 -10 -5 0 -13 5 -16 10 -3 6 -2 10 4 10 5 0 13 -4 16 -10z m-3225 -41 c-7
-11 -9 -27 -6 -35 3 -9 -1 -14 -14 -14 -11 0 -20 5 -20 10 0 6 5 10 12 10 9 0
9 3 0 12 -18 18 -15 26 11 31 12 2 23 5 25 6 1 0 -2 -8 -8 -20z m66 -59 c6 0
16 -6 22 -12 8 -10 4 -13 -16 -13 -15 -1 -38 -4 -52 -9 -17 -5 -21 -4 -11 2 8
6 12 19 8 31 -3 12 0 21 6 22 8 0 8 2 -1 6 -6 2 -9 9 -6 15 4 6 14 -1 23 -16
8 -14 21 -26 27 -26z m111 14 c-3 -3 -12 -4 -19 -1 -8 3 -5 6 6 6 11 1 17 -2
13 -5z m3076 -17 c4 3 7 1 7 -5 0 -7 -4 -12 -10 -12 -5 0 -17 -15 -26 -32 -9
-18 -17 -34 -18 -35 -1 -1 -20 -9 -42 -18 l-39 -16 28 26 c15 14 35 25 43 25
8 0 14 7 14 16 0 13 -6 12 -36 -7 l-36 -22 4 24 c2 17 12 27 36 34 25 7 31 13
26 28 -6 18 -4 18 18 3 14 -9 28 -13 31 -9z m-2563 -2 c-7 -8 -17 -12 -22 -9
-6 4 -5 10 3 15 22 14 33 10 19 -6z m38 -10 c-3 -3 -9 2 -12 12 -6 14 -5 15 5
6 7 -7 10 -15 7 -18z m-248 -6 c0 -5 -4 -9 -10 -9 -5 0 -10 7 -10 16 0 8 5 12
10 9 6 -3 10 -10 10 -16z m2410 1 c24 -24 25 -36 5 -44 -26 -9 -18 -45 11 -52
l27 -7 -29 -13 c-22 -10 -24 -13 -9 -13 49 3 76 -2 70 -11 -4 -6 10 -10 34
-10 21 0 41 5 43 10 5 15 63 14 121 -1 56 -15 60 -24 12 -33 -34 -7 -50 -26
-21 -26 8 0 17 -3 19 -7 6 -9 -123 -15 -273 -12 -14 0 -39 -2 -57 -5 -22 -4
-35 0 -45 11 -11 14 -11 16 1 8 8 -5 24 -9 35 -10 16 0 21 6 22 27 1 15 -2 25
-7 23 -4 -3 -10 -1 -14 5 -3 5 -11 10 -18 10 -6 0 -2 -7 9 -15 21 -16 8 -20
-15 -6 -12 8 -13 14 -3 35 6 14 16 26 22 26 6 0 8 -4 5 -10 -3 -5 1 -10 9 -10
8 0 18 5 21 10 3 6 1 10 -5 10 -7 0 -10 6 -7 13 3 8 -1 14 -9 15 -8 1 -20 3
-28 4 -7 1 -19 17 -26 36 -10 28 -10 36 1 43 8 5 20 7 27 4 6 -2 12 0 12 5 0
17 39 11 60 -10z m-2292 -6 c54 2 62 0 62 -16 0 -12 -7 -18 -24 -18 -13 0 -41
-7 -62 -16 -23 -10 -40 -12 -42 -6 -1 5 -12 8 -23 5 -15 -4 -18 -2 -13 12 4 9
10 13 13 8 3 -4 14 -9 24 -11 16 -3 16 0 5 17 -9 14 -19 19 -33 15 -20 -6 -20
-6 0 9 11 8 22 11 25 7 3 -5 34 -8 68 -6z m2712 6 c0 -5 -2 -10 -4 -10 -3 0
-8 5 -11 10 -3 6 -1 10 4 10 6 0 11 -4 11 -10z m-306 -52 c-3 -4 -14 -8 -25
-8 -11 0 -18 4 -14 9 3 6 14 9 25 8 10 -1 16 -5 14 -9z m281 2 c3 -5 3 -10 -2
-11 -4 0 -18 -2 -30 -5 -17 -3 -21 0 -17 11 7 17 40 20 49 5z m-15 -162 c0
-13 -38 -9 -43 5 -9 25 4 36 24 19 10 -9 19 -20 19 -24z m-2407 25 c-7 -2 -19
-2 -25 0 -7 3 -2 5 12 5 14 0 19 -2 13 -5z m1492 -2 c3 -5 2 -12 -3 -15 -5 -3
-9 1 -9 9 0 17 3 19 12 6z m-125 -11 c0 -5 -8 -10 -17 -10 -15 0 -16 2 -3 10
19 12 20 12 20 0z m-1353 -27 c3 -7 -4 -9 -16 -6 -12 3 -18 9 -15 15 7 11 26
6 31 -9z m1873 7 c0 -5 -5 -10 -11 -10 -5 0 -7 5 -4 10 3 6 8 10 11 10 2 0 4
-4 4 -10z m-2155 -9 c3 -5 2 -12 -3 -15 -5 -3 -9 1 -9 9 0 17 3 19 12 6z
m2340 -11 c-3 -5 -13 -10 -21 -10 -8 0 -14 5 -14 10 0 6 9 10 21 10 11 0 17
-4 14 -10z m-1735 -10 c0 -5 -5 -10 -11 -10 -5 0 -7 5 -4 10 3 6 8 10 11 10 2
0 4 -4 4 -10z m854 -15 c-7 -16 -24 -21 -24 -6 0 8 7 13 27 20 1 1 0 -6 -3
-14z m-140 -23 c3 -5 -1 -9 -9 -9 -8 0 -15 4 -15 9 0 10 17 10 24 0z m491 -18
c-65 -26 -81 -26 -41 -1 22 14 47 22 55 19 11 -4 7 -9 -14 -18z"/>
<path d="M422 1087 c-6 -7 -7 -19 -3 -26 6 -9 10 -5 13 13 6 30 5 31 -10 13z"/>
<path d="M1702 464 c10 -10 20 -15 24 -12 3 4 -5 12 -18 18 -22 12 -22 12 -6
-6z"/>
<path d="M1650 410 c0 -11 4 -20 9 -20 5 0 7 9 4 20 -3 11 -7 20 -9 20 -2 0
-4 -9 -4 -20z"/>
<path d="M4680 240 c-9 -6 -10 -10 -3 -10 6 0 15 5 18 10 8 12 4 12 -15 0z"/>
<path d="M4490 221 c0 -5 14 -9 30 -9 17 1 30 5 30 10 0 4 -13 8 -30 8 -16 0
-30 -4 -30 -9z"/>
<path d="M5175 2199 c-4 -6 -5 -12 -2 -15 2 -3 7 2 10 11 7 17 1 20 -8 4z"/>
<path d="M5390 2203 c0 -5 8 -30 18 -56 16 -42 20 -46 32 -33 7 9 8 16 2 16
-5 0 -17 18 -26 40 -15 37 -26 51 -26 33z"/>
<path d="M5692 2188 c-7 -7 -12 -23 -12 -35 0 -27 -34 -68 -48 -59 -21 12 -34
-21 -23 -59 9 -33 8 -38 -10 -42 -10 -3 -19 -10 -19 -15 0 -5 5 -6 11 -2 7 4
10 1 7 -7 -3 -8 1 -20 9 -27 7 -7 12 -21 12 -30 -1 -15 -2 -15 -6 0 -4 14 -8
16 -24 7 -24 -12 -17 -26 12 -24 12 1 28 12 35 26 l14 24 -1 -30 c-3 -55 1
-95 10 -95 5 0 7 9 4 20 -3 11 -1 20 5 20 6 0 14 -9 17 -20 3 -11 13 -20 21
-20 8 0 14 -7 14 -15 0 -8 5 -15 10 -15 12 0 1 -53 -12 -58 -4 -2 -6 -8 -3
-12 3 -5 1 -11 -5 -15 -5 -3 -10 -1 -10 4 0 6 -5 10 -12 9 -6 -2 -13 6 -15 17
-3 11 -7 27 -10 35 -3 8 -5 22 -4 30 2 13 1 13 -8 0 -5 -8 -7 -18 -5 -22 3 -4
-1 -5 -8 -3 -8 3 -15 15 -16 28 -4 44 -9 62 -15 60 -4 -2 -9 -3 -12 -3 -3 0 1
-16 9 -35 8 -19 12 -35 8 -35 -3 0 -1 -5 6 -12 7 -7 12 -19 12 -27 -1 -23 -40
26 -40 50 0 26 -17 33 -23 9 -3 -13 -1 -18 6 -14 7 3 4 -1 -5 -9 -19 -15 -24
-37 -9 -37 5 0 11 -9 14 -21 3 -12 10 -18 16 -15 10 7 24 -9 28 -34 15 -81 15
-100 0 -100 -9 0 -19 5 -22 10 -3 6 -13 10 -21 10 -8 0 -12 -5 -9 -10 4 -6 11
-7 17 -4 7 5 9 1 5 -9 -10 -27 2 -44 27 -40 18 4 26 -2 35 -25 8 -18 18 -29
26 -26 24 10 34 -76 13 -121 -8 -18 -8 -35 -1 -60 6 -19 8 -33 4 -31 -4 3 -13
1 -21 -4 -15 -9 -14 -11 30 -23 8 -2 15 -14 15 -27 0 -17 6 -23 27 -26 36 -3
68 20 51 37 -21 21 -15 31 20 28 37 -2 77 9 77 22 0 5 7 9 16 9 8 0 13 4 9 9
-3 5 -1 12 4 16 6 3 2 14 -9 25 -21 21 -28 86 -10 92 7 2 3 22 -11 52 -17 39
-19 53 -10 68 9 15 7 22 -13 39 -23 20 -23 23 -11 74 10 47 10 55 -3 60 -8 3
-12 8 -9 12 4 3 2 15 -4 26 -8 14 -8 18 0 13 6 -4 11 -2 11 3 0 6 8 11 18 12
9 0 2 5 -15 10 -33 9 -42 22 -24 33 5 4 12 0 15 -6 3 -7 3 -2 0 11 -5 19 -3
23 10 18 8 -3 18 -1 22 5 5 8 -2 9 -23 5 -28 -5 -30 -4 -27 20 2 20 -1 24 -17
20 -13 -3 -19 0 -19 10 0 10 6 14 19 10 14 -3 18 -1 14 9 -3 8 -10 14 -17 14
-7 0 -6 4 3 9 7 5 22 6 33 3 14 -3 19 -1 16 8 -4 13 -11 16 -73 27 -38 7 -77
32 -69 44 3 5 10 6 16 3 7 -4 8 -2 4 5 -4 7 -17 11 -28 9 -38 -6 -43 24 -13
73 16 24 21 38 12 30 -19 -15 -22 -8 -7 20 12 22 9 24 -8 7z m98 -229 c0 -6
-4 -7 -10 -4 -5 3 -10 11 -10 16 0 6 5 7 10 4 6 -3 10 -11 10 -16z m-7 -176
c-3 -8 -6 -13 -7 -11 -1 2 -8 12 -16 22 -10 13 -10 17 -2 12 7 -4 12 -2 12 6
0 10 2 10 9 -1 5 -8 7 -20 4 -28z m17 -57 c0 -3 -4 -8 -10 -11 -5 -3 -10 -1
-10 4 0 6 5 11 10 11 6 0 10 -2 10 -4z m30 -20 c0 -3 -4 -8 -10 -11 -5 -3 -10
-1 -10 4 0 6 5 11 10 11 6 0 10 -2 10 -4z m-40 -115 c0 -11 6 -21 13 -24 6 -2
9 -8 4 -12 -8 -9 -36 23 -37 43 0 6 5 12 10 12 6 0 10 -9 10 -19z m-93 -23
c-3 -8 -6 -5 -6 6 -1 11 2 17 5 13 3 -3 4 -12 1 -19z m106 -93 c-3 -9 -8 -14
-10 -11 -3 3 -2 9 2 15 9 16 15 13 8 -4z m27 -9 c0 -3 -4 -8 -10 -11 -5 -3
-10 -1 -10 4 0 6 5 11 10 11 6 0 10 -2 10 -4z m-60 -54 c0 -15 -2 -15 -10 -2
-13 20 -13 33 0 25 6 -3 10 -14 10 -23z m47 -74 c-3 -8 -6 -5 -6 6 -1 11 2 17
5 13 3 -3 4 -12 1 -19z m-43 -104 c21 -8 20 -20 -1 -28 -17 -7 -36 12 -27 26
6 10 8 10 28 2z"/>
<path d="M6649 2188 c-7 -22 -3 -48 8 -48 7 0 13 11 13 25 0 14 -4 25 -10 25
-5 0 -10 -1 -11 -2z"/>
<path d="M306 2172 c-9 -8 6 -32 21 -32 8 0 11 5 8 10 -9 14 8 13 23 -2 8 -8
12 -8 12 -1 0 21 -49 41 -64 25z"/>
<path d="M4585 2171 c-3 -6 1 -11 10 -11 13 0 13 -2 3 -14 -7 -7 -19 -11 -25
-9 -7 3 -13 -2 -13 -12 0 -9 4 -14 8 -11 4 2 14 1 22 -4 17 -11 60 17 59 39 0
11 -2 12 -6 3 -4 -10 -11 -8 -28 8 -15 14 -25 18 -30 11z"/>
<path d="M5316 2144 c-8 -22 1 -31 16 -16 9 9 9 15 1 23 -7 7 -12 5 -17 -7z"/>
<path d="M6613 2153 c-15 -5 -17 -23 -4 -23 5 0 11 7 15 15 3 8 4 15 3 14 -1
0 -8 -3 -14 -6z"/>
<path d="M5230 2139 c0 -5 5 -7 10 -4 6 3 10 8 10 11 0 2 -4 4 -10 4 -5 0 -10
-5 -10 -11z"/>
<path d="M5720 2105 c-7 -8 -9 -15 -6 -15 4 0 14 7 22 15 9 8 11 15 6 15 -5 0
-15 -7 -22 -15z"/>
<path d="M5330 2091 c0 -6 4 -13 10 -16 6 -3 7 1 4 9 -7 18 -14 21 -14 7z"/>
<path d="M4702 2079 c2 -6 8 -10 13 -10 5 0 11 4 13 10 2 6 -4 11 -13 11 -9 0
-15 -5 -13 -11z"/>
<path d="M5800 2080 c-12 -8 -12 -10 3 -16 21 -8 35 2 21 16 -5 5 -15 6 -24 0z"/>
<path d="M5071 2058 c0 -16 3 -28 9 -28 5 0 7 -8 3 -17 -3 -10 -2 -15 2 -10 5
4 19 0 32 -8 26 -18 27 -16 11 20 -6 14 -19 25 -29 25 -10 0 -19 9 -22 23 -4
19 -4 18 -6 -5z"/>
<path d="M5430 2045 c0 -14 5 -25 10 -25 6 0 10 11 10 25 0 14 -4 25 -10 25
-5 0 -10 -11 -10 -25z"/>
<path d="M0 2040 c0 -5 5 -10 11 -10 5 0 7 5 4 10 -3 6 -8 10 -11 10 -2 0 -4
-4 -4 -10z"/>
<path d="M37 2039 c7 -7 15 -10 18 -7 3 3 -2 9 -12 12 -14 6 -15 5 -6 -5z"/>
<path d="M310 2030 c0 -5 4 -10 9 -10 6 0 13 5 16 10 3 6 -1 10 -9 10 -9 0
-16 -4 -16 -10z"/>
<path d="M290 2011 c0 -6 4 -13 10 -16 6 -3 7 1 4 9 -7 18 -14 21 -14 7z"/>
<path d="M334 2005 c-18 -14 -18 -14 4 -8 12 3 22 9 22 14 0 12 -3 11 -26 -6z"/>
<path d="M0 1999 c0 -5 5 -7 10 -4 5 3 10 8 10 11 0 2 -4 4 -10 4 -5 0 -10 -5
-10 -11z"/>
<path d="M305 1970 c-3 -5 -3 -10 2 -10 4 0 2 -4 -5 -9 -10 -6 -7 -10 12 -13
15 -3 27 0 30 8 3 8 -1 14 -10 14 -8 0 -12 5 -9 10 3 6 2 10 -4 10 -5 0 -13
-4 -16 -10z"/>
<path d="M200 1915 c-8 -9 -8 -15 -2 -15 12 0 26 19 19 26 -2 2 -10 -2 -17
-11z"/>
<path d="M5130 1900 c0 -5 5 -10 10 -10 6 0 10 5 10 10 0 6 -4 10 -10 10 -5 0
-10 -4 -10 -10z"/>
<path d="M5403 1877 c0 -8 6 -14 13 -14 7 0 10 6 7 14 -3 7 -8 13 -12 13 -4 0
-8 -6 -8 -13z"/>
<path d="M357 1862 c-15 -3 -16 -6 -5 -20 10 -12 10 -14 1 -8 -17 10 -16 -3 2
-37 8 -15 10 -25 5 -22 -6 4 -10 2 -10 -4 0 -10 58 -5 70 6 8 7 -24 22 -35 16
-5 -4 -7 -3 -3 2 4 4 2 15 -5 24 -11 14 -10 14 6 2 20 -16 21 -12 5 21 -8 14
-20 22 -31 20z"/>
<path d="M390 1856 c0 -2 7 -9 15 -16 13 -11 14 -10 9 4 -5 14 -24 23 -24 12z"/>
<path d="M4941 1834 c-11 -13 -11 -18 -1 -24 7 -4 10 -17 7 -29 -5 -20 -4 -20
19 -3 26 19 29 28 12 38 -7 5 -8 3 -3 -6 5 -8 3 -11 -6 -8 -8 3 -13 15 -12 27
3 25 2 25 -16 5z"/>
<path d="M65 1822 c6 -35 16 -45 28 -33 8 8 5 17 -11 33 l-22 22 5 -22z"/>
<path d="M824 1815 c-14 -21 -19 -23 -32 -13 -12 10 -14 10 -8 1 4 -7 3 -13
-1 -13 -5 0 -15 6 -23 13 -8 6 -4 0 9 -15 29 -33 41 -35 48 -8 3 11 10 17 16
13 6 -3 7 -1 3 6 -4 6 -2 18 4 26 7 8 10 15 6 15 -3 0 -13 -11 -22 -25z m-19
-35 c3 -5 1 -10 -4 -10 -6 0 -11 5 -11 10 0 6 2 10 4 10 3 0 8 -4 11 -10z"/>
<path d="M4995 1830 c-3 -5 -1 -11 5 -15 17 -11 11 -33 -12 -41 -27 -8 -49
-29 -41 -38 12 -11 36 -6 50 12 13 15 14 15 9 0 -6 -20 28 -53 45 -42 9 5 5
10 -12 16 -23 9 -23 10 -6 23 12 8 14 15 8 20 -6 3 -11 1 -11 -6 0 -10 -3 -10
-11 -2 -6 6 -8 17 -3 24 13 21 12 48 -2 53 -8 3 -16 1 -19 -4z"/>
<path d="M5299 1838 c-6 -25 -5 -77 2 -88 6 -10 9 -11 10 -2 1 6 2 18 3 25 1
6 7 11 14 10 7 -2 12 6 12 17 0 14 -7 20 -21 20 -11 0 -17 5 -14 10 3 6 4 10
1 10 -3 0 -6 -1 -7 -2z"/>
<path d="M4780 1821 c0 -5 9 -7 20 -4 11 3 20 7 20 9 0 2 -9 4 -20 4 -11 0
-20 -4 -20 -9z"/>
<path d="M4883 1791 c-6 -9 -23 -17 -39 -19 -15 -1 -33 -7 -39 -14 -7 -8 -6
-9 2 -4 7 4 20 3 30 -2 12 -7 21 -5 31 5 8 8 18 11 21 6 8 -11 42 -13 35 -2
-3 5 -12 9 -20 9 -8 0 -14 5 -14 11 0 7 10 9 28 4 22 -5 25 -4 15 6 -19 19
-38 19 -50 0z"/>
<path d="M5367 1803 c-4 -3 -7 -11 -7 -17 0 -6 5 -5 12 2 6 6 9 14 7 17 -3 3
-9 2 -12 -2z"/>
<path d="M675 1768 c3 -17 0 -37 -6 -44 -7 -8 -7 -14 1 -19 16 -10 12 -26 -6
-23 -11 2 -24 -10 -36 -32 -11 -19 -32 -47 -46 -62 -14 -16 -22 -28 -18 -28
11 0 108 100 98 101 -4 0 4 5 17 10 14 5 21 15 18 23 -6 15 12 26 46 27 22 0
22 0 -1 10 -13 5 -20 13 -17 19 3 5 1 10 -5 10 -6 0 -8 5 -4 12 5 7 2 9 -9 5
-11 -4 -14 -2 -10 9 3 8 -1 14 -10 14 -12 0 -15 -8 -12 -32z"/>
<path d="M4755 1790 c-3 -5 1 -10 10 -10 9 0 13 5 10 10 -3 6 -8 10 -10 10 -2
0 -7 -4 -10 -10z"/>
<path d="M5210 1781 c0 -5 -3 -18 -6 -28 -4 -13 -3 -15 4 -4 7 9 9 1 7 -28 -2
-42 3 -49 22 -30 8 8 7 23 -4 55 -14 42 -23 55 -23 35z"/>
<path d="M5340 1750 c0 -6 7 -10 15 -10 8 0 15 2 15 4 0 2 -7 6 -15 10 -8 3
-15 1 -15 -4z"/>
<path d="M4906 1714 c-21 -12 -25 -18 -16 -24 14 -9 60 15 60 31 0 12 -10 11
-44 -7z"/>
<path d="M4965 1710 c3 -5 0 -10 -7 -10 -8 -1 -6 -6 6 -15 26 -20 45 -3 23 19
-17 18 -32 21 -22 6z"/>
<path d="M5078 1695 c-6 -30 6 -50 26 -42 9 4 20 -1 25 -11 9 -15 10 -15 11
-1 0 9 -7 22 -15 29 -8 7 -12 16 -10 21 3 4 -3 13 -14 18 -16 9 -19 7 -23 -14z"/>
<path d="M5013 1683 c4 -6 -3 -14 -16 -18 -15 -4 -18 -8 -9 -12 20 -8 48 22
31 32 -7 5 -10 4 -6 -2z"/>
<path d="M494 1672 c3 -5 1 -12 -6 -14 -9 -3 -9 -6 0 -12 7 -4 12 -3 12 3 0 6
14 8 33 6 30 -5 30 -4 5 4 -14 5 -32 12 -39 16 -7 5 -10 4 -5 -3z"/>
<path d="M5155 1660 c3 -5 8 -10 11 -10 2 0 4 5 4 10 0 6 -5 10 -11 10 -5 0
-7 -4 -4 -10z"/>
<path d="M379 1638 c11 -10 26 -18 32 -18 7 0 4 8 -7 18 -10 10 -25 19 -32 19
-7 0 -4 -8 7 -19z"/>
<path d="M5482 1624 c-7 -14 -8 -23 -3 -19 6 3 14 -3 20 -12 10 -17 10 -17 11
0 0 9 -5 17 -11 17 -6 0 -8 9 -4 20 9 28 0 25 -13 -6z"/>
<path d="M5109 1629 c-1 -8 -3 -24 -4 -36 -1 -12 4 -24 11 -27 10 -4 12 4 8
31 -5 39 -13 56 -15 32z"/>
<path d="M356 1613 c-6 -14 -5 -15 5 -6 7 7 10 15 7 18 -3 3 -9 -2 -12 -12z"/>
<path d="M676 1595 c5 -12 9 -13 14 -4 6 8 10 6 13 -7 5 -17 6 -17 4 1 -1 11
-10 21 -20 23 -12 3 -15 -1 -11 -13z"/>
<path d="M5055 1581 c-3 -6 4 -15 15 -21 20 -11 21 -10 10 9 -12 23 -16 25
-25 12z"/>
<path d="M5160 1569 c0 -5 5 -7 10 -4 6 3 10 8 10 11 0 2 -4 4 -10 4 -5 0 -10
-5 -10 -11z"/>
<path d="M5376 1558 c3 -5 10 -6 15 -3 13 9 11 12 -6 12 -8 0 -12 -4 -9 -9z"/>
<path d="M5130 1541 c0 -8 -8 -20 -17 -28 -17 -14 -17 -14 0 -9 10 3 15 2 12
-3 -3 -5 -1 -12 5 -16 14 -9 25 44 11 58 -8 8 -11 8 -11 -2z"/>
<path d="M498 1508 c-10 -10 -15 -18 -10 -18 4 0 0 -5 -8 -10 -9 -6 -10 -10
-3 -10 7 0 24 10 39 23 20 18 23 25 13 29 -8 2 -22 -4 -31 -14z"/>
<path d="M670 1480 c-7 -17 -20 -35 -29 -40 -9 -6 -11 -10 -4 -10 7 0 18 8 24
18 8 12 21 18 38 16 14 -2 18 -1 8 2 -11 3 -16 12 -13 20 11 28 -12 22 -24 -6z"/>
<path d="M5090 1470 c0 -5 5 -10 11 -10 5 0 7 5 4 10 -3 6 -8 10 -11 10 -2 0
-4 -4 -4 -10z"/>
<path d="M5120 1456 c0 -2 7 -7 16 -10 8 -3 12 -2 9 4 -6 10 -25 14 -25 6z"/>
<path d="M5569 1443 c6 -12 11 -31 11 -42 0 -12 5 -21 11 -21 5 0 8 -4 5 -8
-2 -4 -1 -14 5 -22 6 -11 9 -6 9 17 0 17 -5 35 -11 38 -6 4 -8 14 -4 23 3 9 3
13 -1 9 -4 -4 -13 1 -21 11 -13 15 -13 15 -4 -5z"/>
<path d="M5414 1413 c0 -18 3 -33 7 -33 15 0 21 -42 8 -52 -10 -7 -8 -8 9 -5
24 6 66 -28 56 -44 -3 -5 1 -6 9 -3 12 4 10 14 -11 52 -14 26 -30 50 -36 54
-6 4 -7 10 -3 14 4 4 -1 16 -10 27 -17 19 -17 20 0 14 10 -4 16 -3 12 2 -3 6
-13 9 -23 8 -12 -1 -17 -10 -18 -34z"/>
<path d="M5380 1420 c6 -11 13 -20 16 -20 2 0 0 9 -6 20 -6 11 -13 20 -16 20
-2 0 0 -9 6 -20z"/>
<path d="M434 1319 c-8 -14 14 -19 25 -6 8 10 7 14 -5 14 -8 0 -17 -4 -20 -8z"/>
<path d="M5598 1308 c-21 -21 -21 -20 14 -22 24 -2 25 0 16 19 -6 11 -11 20
-12 21 0 0 -9 -8 -18 -18z"/>
<path d="M5385 1311 c3 -5 1 -12 -4 -15 -5 -4 -7 -25 -5 -49 3 -23 6 -55 8
-71 2 -15 7 -31 13 -35 16 -11 36 -70 30 -92 -5 -17 -2 -20 14 -16 10 3 19 0
19 -6 0 -6 3 -8 6 -4 7 7 -18 67 -27 67 -4 0 -9 9 -12 21 -7 27 20 37 38 13
12 -16 14 -16 15 -3 0 9 -3 19 -7 23 -4 3 -8 12 -9 19 -2 7 -6 23 -10 36 -6
19 -4 22 7 16 8 -5 11 -4 6 1 -5 5 -12 9 -15 9 -4 0 -13 4 -21 9 -10 7 -12 5
-6 -5 6 -11 5 -11 -5 -2 -15 14 -4 34 15 26 8 -3 15 -2 15 2 0 11 -23 50 -34
57 -16 11 -38 10 -31 -1z"/>
<path d="M6088 1263 c7 -3 16 -2 19 1 4 3 -2 6 -13 5 -11 0 -14 -3 -6 -6z"/>
<path d="M5865 1230 c-3 -6 1 -7 9 -4 18 7 21 14 7 14 -6 0 -13 -4 -16 -10z"/>
<path d="M5670 1223 c0 -4 5 -15 10 -23 8 -13 10 -13 10 2 0 9 -4 20 -10 23
-5 3 -10 3 -10 -2z"/>
<path d="M775 1210 c-4 -6 -3 -16 3 -22 6 -6 12 -6 17 2 4 6 3 16 -3 22 -6 6
-12 6 -17 -2z"/>
<path d="M5574 1213 c3 -6 1 -13 -5 -15 -9 -3 -8 -11 2 -28 l14 -25 3 29 c2
16 -2 34 -9 40 -9 8 -10 8 -5 -1z"/>
<path d="M5627 1185 c-4 -8 -2 -17 3 -20 6 -4 10 3 10 14 0 25 -6 27 -13 6z"/>
<path d="M5918 1188 c9 -9 15 -9 24 0 9 9 7 12 -12 12 -19 0 -21 -3 -12 -12z"/>
<path d="M5610 1120 c0 -5 5 -10 11 -10 5 0 7 5 4 10 -3 6 -8 10 -11 10 -2 0
-4 -4 -4 -10z"/>
<path d="M5490 1118 c0 -4 5 -19 12 -35 6 -15 11 -31 10 -35 -1 -3 5 -9 13
-12 16 -6 20 5 8 18 -5 4 -8 11 -8 14 0 4 -8 18 -18 32 -9 13 -17 21 -17 18z"/>
<path d="M1454 1067 c-17 -9 -19 -15 -10 -23 9 -8 15 -5 23 13 6 12 10 23 10
23 -1 -1 -12 -6 -23 -13z"/>
<path d="M5698 1073 c7 -3 16 -2 19 1 4 3 -2 6 -13 5 -11 0 -14 -3 -6 -6z"/>
<path d="M5955 1070 c4 -6 11 -8 16 -5 14 9 11 15 -7 15 -8 0 -12 -5 -9 -10z"/>
<path d="M5555 1029 c-4 -6 -5 -12 -2 -15 2 -3 7 2 10 11 7 17 1 20 -8 4z"/>
<path d="M1500 960 c0 -5 0 -12 0 -15 0 -12 14 -4 16 10 1 8 -2 15 -7 15 -5 0
-9 -4 -9 -10z"/>
<path d="M1536 961 c-4 -7 -5 -15 -2 -18 9 -9 19 4 14 18 -4 11 -6 11 -12 0z"/>
<path d="M1341 834 c0 -11 3 -14 6 -6 3 7 2 16 -1 19 -3 4 -6 -2 -5 -13z"/>
<path d="M1320 799 c0 -5 5 -7 10 -4 6 3 10 8 10 11 0 2 -4 4 -10 4 -5 0 -10
-5 -10 -11z"/>
<path d="M4930 780 c8 -5 20 -10 25 -10 6 0 3 5 -5 10 -8 5 -19 10 -25 10 -5
0 -3 -5 5 -10z"/>
<path d="M1286 772 c-2 -4 4 -8 15 -8 10 0 19 4 19 8 0 10 -27 10 -34 0z"/>
<path d="M1385 770 c3 -5 8 -10 11 -10 2 0 4 5 4 10 0 6 -5 10 -11 10 -5 0 -7
-4 -4 -10z"/>
<path d="M4867 773 c-4 -3 -7 -11 -7 -17 0 -6 5 -5 12 2 6 6 9 14 7 17 -3 3
-9 2 -12 -2z"/>
<path d="M1245 760 c-3 -5 -1 -10 4 -10 6 0 11 5 11 10 0 6 -2 10 -4 10 -3 0
-8 -4 -11 -10z"/>
<path d="M4900 761 c0 -5 7 -12 16 -15 14 -5 15 -4 4 9 -14 17 -20 19 -20 6z"/>
<path d="M5440 756 c6 -6 18 -5 32 1 21 10 21 10 -9 9 -20 0 -29 -4 -23 -10z"/>
<path d="M5183 721 c0 -11 5 -18 9 -15 4 3 5 11 1 19 -7 21 -12 19 -10 -4z"/>
<path d="M5470 720 c-6 -11 -7 -20 -2 -20 10 0 32 21 32 32 0 16 -19 8 -30
-12z"/>
<path d="M1306 716 c5 -13 4 -17 -4 -12 -7 4 -12 2 -12 -3 0 -14 17 -14 26 0
3 6 1 16 -5 22 -9 9 -10 7 -5 -7z"/>
<path d="M1330 713 c0 -7 4 -13 9 -13 5 0 11 6 14 13 3 8 -1 14 -9 14 -8 0
-14 -6 -14 -14z"/>
<path d="M4926 711 c-16 -17 -15 -18 8 -16 14 2 35 10 48 19 l22 16 -30 0
c-17 0 -38 -8 -48 -19z"/>
<path d="M5110 723 c1 -12 38 -58 43 -53 3 3 -6 18 -19 33 -13 15 -24 24 -24
20z"/>
<path d="M5419 718 c-1 -7 -1 -19 0 -25 1 -7 -5 -13 -14 -13 -18 0 -19 -7 -2
-24 19 -19 57 23 46 52 -9 24 -28 30 -30 10z"/>
<path d="M4845 710 c-3 -5 -2 -10 4 -10 5 0 13 5 16 10 3 6 2 10 -4 10 -5 0
-13 -4 -16 -10z"/>
<path d="M1125 700 c-3 -5 -1 -10 4 -10 6 0 11 5 11 10 0 6 -2 10 -4 10 -3 0
-8 -4 -11 -10z"/>
<path d="M5270 681 c0 -5 5 -13 10 -16 6 -3 10 -2 10 4 0 5 -4 13 -10 16 -5 3
-10 2 -10 -4z"/>
<path d="M5240 660 c0 -11 4 -20 9 -20 17 0 19 15 5 28 -12 11 -14 9 -14 -8z"/>
<path d="M1830 645 c0 -9 10 -13 28 -11 15 2 35 0 44 -5 10 -6 19 -5 23 2 11
17 -3 23 -51 25 -30 1 -44 -2 -44 -11z"/>
<path d="M4864 644 c-10 -8 -13 -12 -6 -9 7 4 28 4 47 1 28 -6 32 -10 28 -29
-5 -22 -5 -22 10 -2 17 22 5 48 -18 39 -7 -3 -16 -1 -20 5 -9 15 -18 14 -41
-5z"/>
<path d="M4808 603 c6 -2 18 -2 25 0 6 3 1 5 -13 5 -14 0 -19 -2 -12 -5z"/>
<path d="M2135 571 c-3 -5 -2 -12 3 -15 5 -3 9 1 9 9 0 17 -3 19 -12 6z"/>
<path d="M4570 550 c-13 -8 -12 -10 3 -10 9 0 17 5 17 10 0 12 -1 12 -20 0z"/>
<path d="M2255 540 c-2 -3 9 -6 25 -6 17 0 27 2 25 5 -8 7 -45 9 -50 1z"/>
<path d="M2190 530 c-8 -5 -10 -10 -5 -10 6 0 17 5 25 10 8 5 11 10 5 10 -5 0
-17 -5 -25 -10z"/>
<path d="M4660 514 c0 -14 3 -14 15 -4 8 7 15 14 15 16 0 2 -7 4 -15 4 -8 0
-15 -7 -15 -16z"/>
<path d="M2216 493 c-6 -14 -5 -15 5 -6 7 7 10 15 7 18 -3 3 -9 -2 -12 -12z"/>
<path d="M5280 443 c-14 -3 -29 -8 -33 -13 -5 -4 3 -5 16 -3 17 3 32 -2 46
-16 25 -25 35 -27 27 -6 -3 10 3 17 19 21 14 3 22 10 19 15 -5 9 -49 10 -94 2z"/>
<path d="M4092 431 c-10 -6 -10 -10 2 -20 11 -9 16 -9 22 0 5 8 3 9 -6 4 -10
-6 -12 -4 -7 8 7 19 7 20 -11 8z"/>
<path d="M3398 413 c6 -2 12 -9 12 -14 0 -4 -7 -6 -16 -2 -11 4 -15 2 -12 -7
5 -15 46 -21 54 -9 6 10 -24 39 -39 38 -9 0 -8 -2 1 -6z"/>
<path d="M3318 385 c-6 -27 17 -42 37 -25 6 5 15 7 18 3 4 -3 7 -1 7 5 0 6
-13 18 -29 26 -28 15 -29 14 -33 -9z"/>
<path d="M4121 401 c-8 -5 -21 -7 -29 -3 -10 3 -13 1 -8 -6 4 -7 14 -12 22
-12 8 0 14 -4 14 -9 0 -15 -18 -23 -25 -11 -3 5 -12 10 -18 10 -7 0 -6 -4 3
-10 13 -8 12 -10 -4 -10 -16 0 -17 -3 -8 -12 10 -10 15 -10 21 0 5 8 11 13 15
13 20 -3 26 1 26 14 0 8 5 15 10 15 6 0 10 7 10 15 0 17 -9 19 -29 6z"/>
<path d="M2840 392 c0 -13 23 -32 39 -32 11 0 9 5 -7 20 -23 21 -32 25 -32 12z"/>
<path d="M3891 392 c0 -7 -5 -11 -10 -8 -5 3 -20 -3 -32 -14 -13 -11 -20 -19
-15 -20 5 0 3 -6 -3 -14 -9 -11 -8 -18 4 -30 21 -20 69 -21 85 -1 7 9 19 14
26 11 7 -3 15 2 18 10 11 28 7 35 -15 24 -24 -14 -46 0 -52 33 -2 12 -5 16 -6
9z"/>
<path d="M5080 384 c0 -12 -6 -15 -25 -12 -32 7 -32 -6 0 -38 14 -14 23 -29
20 -34 -3 -4 2 -10 9 -13 15 -6 29 6 39 36 4 9 13 17 20 17 18 0 72 27 85 43
8 9 1 12 -29 13 -21 1 -39 -2 -39 -7 0 -5 -4 -8 -9 -6 -5 1 -16 -7 -24 -17
-15 -21 -42 -13 -33 10 3 7 1 16 -4 19 -6 4 -10 -1 -10 -11z"/>
<path d="M5380 389 c0 -5 5 -7 10 -4 6 3 10 8 10 11 0 2 -4 4 -10 4 -5 0 -10
-5 -10 -11z"/>
<path d="M3050 380 c0 -5 -3 -9 -7 -9 -5 1 -28 0 -53 -1 l-45 -2 45 -10 c25
-6 69 -10 98 -9 36 1 52 -2 52 -11 0 -10 2 -10 8 -1 4 6 21 10 39 9 17 -1 30
2 27 6 -3 4 -16 8 -28 8 -13 0 -40 7 -59 15 -42 17 -77 20 -77 5z"/>
<path d="M5323 350 c1 -17 5 -30 10 -30 4 0 17 0 30 0 22 0 22 1 -3 13 -14 7
-24 21 -24 30 1 9 -2 17 -7 17 -5 0 -8 -14 -6 -30z"/>
<path d="M3240 346 c7 -7 13 -7 20 0 6 6 3 10 -10 10 -13 0 -16 -4 -10 -10z"/>
<path d="M4030 345 c-9 -11 -17 -12 -32 -4 -13 7 -18 7 -14 1 3 -6 0 -13 -6
-15 -8 -4 -4 -8 10 -13 14 -4 21 -12 18 -20 -3 -8 -1 -14 3 -14 5 0 12 6 14
13 4 8 6 8 6 0 1 -15 38 -5 45 12 3 8 -2 19 -9 25 -8 7 -12 16 -9 21 9 15 -13
10 -26 -6z"/>
<path d="M3650 320 c-22 -7 -21 -8 12 -9 20 -1 40 4 43 9 7 12 -19 12 -55 0z"/>
<path d="M3720 316 c0 -18 30 -36 59 -36 24 0 30 35 8 43 -20 7 -41 -8 -33
-24 4 -8 -2 -3 -13 10 -16 17 -21 19 -21 7z"/>
<path d="M5465 320 c-3 -5 -13 -6 -23 -3 -9 3 -14 3 -10 -2 10 -11 79 -15 73
-4 -3 4 -13 5 -22 2 -11 -4 -14 -3 -9 5 4 7 5 12 2 12 -3 0 -7 -4 -11 -10z"/>
<path d="M2411 311 c-8 -5 -21 -7 -29 -3 -10 3 -13 1 -8 -6 4 -7 2 -12 -6 -12
-10 0 -9 -3 2 -10 8 -5 17 -6 20 -2 9 12 46 19 118 21 12 1 22 6 22 11 0 12
-100 13 -119 1z"/>
<path d="M2988 303 c7 -3 16 -2 19 1 4 3 -2 6 -13 5 -11 0 -14 -3 -6 -6z"/>
<path d="M3045 300 c27 -12 35 -12 35 0 0 6 -12 10 -27 9 -25 0 -26 -1 -8 -9z"/>
<path d="M3250 300 c0 -6 7 -10 15 -10 8 0 15 2 15 4 0 2 -7 6 -15 10 -8 3
-15 1 -15 -4z"/>
<path d="M3098 293 c7 -3 16 -2 19 1 4 3 -2 6 -13 5 -11 0 -14 -3 -6 -6z"/>
<path d="M3218 293 c7 -3 16 -2 19 1 4 3 -2 6 -13 5 -11 0 -14 -3 -6 -6z"/>
<path d="M4094 274 c12 -25 18 -23 23 4 1 11 -4 18 -15 18 -15 0 -16 -4 -8
-22z"/>
<path d="M3975 280 c3 -5 8 -10 11 -10 2 0 4 5 4 10 0 6 -5 10 -11 10 -5 0 -7
-4 -4 -10z"/>
<path d="M2603 272 c-13 -2 -23 -8 -23 -13 0 -5 -11 -9 -24 -9 -19 0 -23 -4
-19 -19 4 -17 9 -18 29 -9 13 6 24 14 24 18 0 3 19 7 43 9 23 1 46 6 51 11 5
5 1 7 -10 6 -11 -2 -26 0 -34 3 -8 4 -25 5 -37 3z"/>
<path d="M5302 244 c10 -10 20 -15 24 -12 3 4 -5 12 -18 18 -22 12 -22 12 -6
-6z"/>
<path d="M2865 230 c-3 -5 -1 -10 4 -10 6 0 11 5 11 10 0 6 -2 10 -4 10 -3 0
-8 -4 -11 -10z"/>
<path d="M4190 229 c0 -6 -4 -7 -10 -4 -5 3 -10 1 -10 -4 0 -13 20 -14 38 -2
11 7 11 9 -2 14 -9 4 -16 2 -16 -4z"/>
<path d="M3570 192 c0 -5 7 -13 16 -16 10 -4 14 -1 12 6 -5 15 -28 23 -28 10z"/>
<path d="M2304 179 c-4 -8 -3 -10 4 -5 6 4 23 -1 37 -10 23 -15 25 -15 25 0 0
9 -6 16 -14 16 -8 0 -21 3 -29 6 -8 3 -18 0 -23 -7z"/>
<path d="M4158 183 c7 -3 16 -2 19 1 4 3 -2 6 -13 5 -11 0 -14 -3 -6 -6z"/>
</g>
</svg>
